<svg width="908" height="1218" viewBox="0 0 908 1218" fill="none" xmlns="http://www.w3.org/2000/svg">
<path d="M485.55 75.6936C492.35 81.9961 512.142 88.3814 512.142 88.3814C512.142 88.3814 512.418 74.0628 512.308 73.1506C511.147 62.6465 502.688 43.0482 491.106 40.6986C489.168 40.3563 487.181 40.4267 485.272 40.905C483.364 41.3834 481.577 42.259 480.03 43.4748C478.483 44.6905 477.21 46.2189 476.294 47.9601C475.378 49.7014 474.84 51.6164 474.714 53.5799C473.885 61.9002 479.773 70.3311 485.55 75.6936Z" fill="#4E94E4"/>
<path d="M472.558 134.986C480.463 139.105 499.73 140.127 501.25 140.183C500.655 151.237 500.793 162.318 501.665 173.353C502.107 179.766 502.798 186.207 503.545 192.703C502.771 189.939 502.052 187.174 501.914 186.87C497.988 177.057 484.693 160.362 472.862 161.163C470.905 161.348 469.009 161.943 467.298 162.91C465.586 163.876 464.098 165.193 462.929 166.773C461.761 168.354 460.939 170.163 460.516 172.083C460.094 174.002 460.081 175.989 460.478 177.914C461.86 186.207 469.766 192.731 476.787 196.379C483.808 200.028 500.31 201.272 504.65 201.521C504.954 204.009 505.258 206.469 505.59 208.957C507.138 220.815 508.741 232.646 509.958 244.283C510.4 248.402 510.649 252.576 510.953 256.501C510.262 253.93 509.653 251.774 509.515 251.47C505.618 241.63 492.294 224.961 480.491 225.735C478.535 225.925 476.641 226.523 474.931 227.49C473.22 228.458 471.732 229.774 470.562 231.352C469.392 232.931 468.567 234.738 468.139 236.656C467.712 238.574 467.691 240.56 468.08 242.486C469.489 250.779 477.395 257.33 484.389 260.951C491.382 264.573 506.309 265.734 511.478 266.065C511.644 270.239 511.837 274.358 511.81 278.449C511.81 281.213 511.81 283.977 511.616 286.742C511.423 289.506 511.257 292.27 511.091 294.896C510.593 300.065 510.096 305.4 509.46 310.431C509.045 313.942 508.575 317.286 508.133 320.631C507.746 316.54 506.834 308.551 506.668 307.888C504.319 297.605 493.676 279.085 481.79 278.09C479.827 277.974 477.862 278.274 476.023 278.97C474.184 279.665 472.513 280.74 471.117 282.125C469.722 283.51 468.634 285.174 467.925 287.008C467.216 288.841 466.901 290.804 467.002 292.768C467.14 301.06 473.94 308.828 480.325 313.472C487.346 318.613 505.479 322.483 507.746 322.925C506.972 328.454 506.198 333.982 505.341 338.958C504.623 343.519 503.876 347.831 503.13 351.922L510.123 354.354C510.842 349.849 511.588 345.094 512.279 340.008C513.081 334.48 513.827 328.343 514.518 322.124C520.484 321.862 526.428 321.244 532.32 320.272C535.886 328.564 548.021 340.81 549.596 342.385C545.892 346.587 542.244 350.678 538.761 354.437C536.356 357.036 534.034 359.523 531.767 361.901L539.175 364.471C540.751 362.758 542.327 360.989 543.957 359.136C547.744 354.88 551.697 350.236 555.705 345.454C557.64 346.615 573.645 356.096 582.297 357.091C590.12 357.976 600.375 356.925 606.125 350.872C607.528 349.495 608.626 347.838 609.346 346.008C610.066 344.179 610.393 342.218 610.304 340.254C610.215 338.29 609.714 336.367 608.832 334.61C607.949 332.853 606.707 331.301 605.185 330.057C595.842 322.815 575.469 329.2 566.762 335.171C566.237 335.53 561.068 339.98 557.861 342.828C559.492 340.865 561.096 338.985 562.754 336.94C566.043 332.904 569.222 328.785 572.65 324.39L577.432 317.756C579.091 315.572 580.556 313.085 582.131 310.707C585.669 305.179 588.986 299.374 592.221 293.459C595.731 296.223 608.419 306.368 616.076 308.441C623.733 310.514 633.96 311.011 640.567 305.898C642.162 304.751 643.498 303.281 644.487 301.583C645.476 299.886 646.096 297.999 646.307 296.045C646.519 294.092 646.316 292.116 645.713 290.247C645.109 288.377 644.119 286.655 642.806 285.194C634.513 276.597 613.56 279.859 604.107 284.42C603.526 284.724 597.058 288.76 593.547 291.054C595.455 287.488 597.39 283.95 599.076 280.273C604.3 269.659 609.276 258.768 614.279 247.904C615.799 244.587 617.375 241.298 618.923 238.008C620.167 239.031 634.983 251.277 643.552 253.626C651.181 255.672 661.464 256.197 668.071 251.083C669.668 249.934 671.005 248.461 671.995 246.76C672.984 245.059 673.603 243.168 673.812 241.212C674.02 239.255 673.814 237.276 673.206 235.405C672.598 233.534 671.601 231.812 670.282 230.352C662.155 221.783 641.037 225.017 631.583 229.605C630.864 229.937 621.549 235.797 619.282 237.4C622.71 230.13 626.165 222.916 629.897 215.922C634.871 206.474 640.458 197.36 646.62 188.64C647.201 189.137 662.598 201.991 671.36 204.368C678.989 206.441 689.272 206.966 695.879 201.852C697.475 200.703 698.811 199.23 699.8 197.53C700.789 195.83 701.41 193.941 701.621 191.986C701.832 190.03 701.629 188.052 701.026 186.181C700.422 184.309 699.431 182.585 698.118 181.121C689.825 172.552 668.872 175.786 659.419 180.375C658.672 180.734 648.666 187.009 646.952 188.28C647.312 187.783 647.616 187.23 647.975 186.732C654.388 178.087 661.547 170.021 669.37 162.628C673.654 158.565 677.967 154.888 682.251 151.406C684.85 154.17 696.985 166.249 704.641 169.262C712.298 172.275 722.167 173.796 729.271 169.456C730.985 168.489 732.477 167.172 733.648 165.59C734.82 164.008 735.645 162.197 736.07 160.275C736.495 158.353 736.51 156.363 736.115 154.435C735.72 152.507 734.923 150.683 733.776 149.084C726.617 139.658 705.277 140.57 695.326 144.08C694.773 144.274 689.466 146.845 685.651 148.724C687.614 147.176 689.576 145.573 691.484 144.136C698.615 138.607 705.471 134.184 711.58 130.315C715.063 128.103 718.269 126.168 721.282 124.371C725.235 125.671 741.212 130.702 749.256 129.9C757.3 129.098 766.892 125.836 771.204 118.705C772.279 117.057 772.995 115.201 773.305 113.257C773.615 111.314 773.513 109.328 773.004 107.427C772.496 105.526 771.593 103.753 770.354 102.224C769.115 100.696 767.568 99.445 765.814 98.5537C755.116 93.4951 736.623 104.082 729.381 111.822C728.745 112.513 720.176 124.04 720.37 124.095H720.619C717.689 125.754 714.565 127.578 711.193 129.623C704.973 133.438 698.007 137.916 690.737 143.113C682.829 148.703 675.261 154.758 668.071 161.246C660.02 168.48 652.62 176.407 645.957 184.935L645.736 185.267C646.952 182.005 649.993 172.801 650.131 172.082C652.315 161.716 650.407 140.459 640.125 134.599C638.389 133.673 636.478 133.123 634.515 132.984C632.553 132.845 630.583 133.121 628.735 133.794C626.886 134.467 625.2 135.521 623.786 136.888C622.371 138.256 621.261 139.906 620.526 141.731C617.154 149.388 620.112 159.228 623.954 166.139C628.266 173.906 643.773 185.488 645.017 186.318C638.44 195.182 632.457 204.472 627.105 214.126C623.954 219.654 620.941 225.459 618.011 231.264C618.951 228.5 619.78 225.735 619.863 225.514C622.019 215.148 620.112 193.892 609.829 188.031C608.094 187.11 606.185 186.564 604.226 186.427C602.267 186.291 600.301 186.568 598.456 187.241C596.611 187.913 594.927 188.966 593.515 190.331C592.103 191.695 590.993 193.342 590.258 195.163C586.858 202.82 589.843 212.661 593.658 219.571C597.473 226.482 610.575 236.626 614.058 239.252C612.98 241.491 611.847 243.703 610.741 245.942C605.517 256.695 600.32 267.447 594.902 277.841C592.995 281.49 590.977 285.028 588.987 288.566C589.816 286.051 590.507 283.922 590.59 283.563C592.746 273.225 590.839 251.968 580.556 246.108C578.82 245.182 576.909 244.631 574.947 244.493C572.984 244.354 571.015 244.63 569.166 245.303C567.317 245.975 565.631 247.03 564.217 248.397C562.802 249.764 561.692 251.414 560.957 253.239C557.585 260.869 560.543 270.737 564.385 277.647C568.227 284.558 580.03 293.707 584.177 296.831C582.021 300.425 579.865 303.99 577.598 307.363C576.022 309.602 574.64 311.896 572.926 314.08L567.978 320.603C564.689 324.639 561.344 328.896 558.027 332.655C555.761 335.419 553.522 337.88 551.31 340.45C553.245 336.829 556.839 329.642 557.143 329.007C560.071 320.179 560.69 310.748 558.939 301.613C559.312 300.647 559.59 299.647 559.769 298.628C560.179 296.705 560.179 294.718 559.769 292.795C559.36 290.873 558.55 289.058 557.392 287.47C556.234 285.881 554.754 284.555 553.049 283.577C551.344 282.599 549.451 281.991 547.496 281.794C535.692 280.909 522.258 297.467 518.278 307.28C518.029 307.833 516.177 314.384 515.099 318.558C515.375 316.015 515.652 313.555 515.901 310.929C516.426 305.759 516.813 300.59 517.255 295.007C517.255 292.242 517.476 289.478 517.587 286.852C517.697 284.226 517.587 281.324 517.587 278.394C517.587 271.787 517.062 265.125 516.481 258.408C521.014 258.878 537.13 260.26 544.648 257.773C552.167 255.285 561.013 250.033 563.694 242.127C564.394 240.289 564.699 238.324 564.588 236.36C564.478 234.396 563.954 232.477 563.051 230.729C562.149 228.982 560.887 227.444 559.35 226.217C557.813 224.989 556.034 224.1 554.13 223.607C542.603 220.843 526.792 235.3 521.374 244.366C521.042 244.947 517.891 251.885 516.205 255.727C515.845 251.719 515.486 247.683 514.961 243.62C513.468 231.9 511.616 220.069 509.792 208.238C509.239 204.644 508.741 201.023 508.216 197.402C509.819 197.596 528.92 199.641 537.351 196.849C544.842 194.361 553.715 189.137 556.396 181.231C557.109 179.381 557.421 177.4 557.31 175.421C557.2 173.441 556.669 171.507 555.754 169.748C554.839 167.989 553.561 166.444 552.004 165.217C550.446 163.989 548.646 163.107 546.722 162.628C535.195 159.864 519.383 174.293 513.966 183.388C513.551 184.051 509.018 194.057 507.995 196.656C506.834 188.722 505.756 180.762 505.01 172.911C503.949 162.276 503.57 151.585 503.876 140.901C504.623 140.901 524.553 143.223 533.177 140.349C540.696 137.888 549.541 132.636 552.222 124.731C552.923 122.893 553.227 120.927 553.117 118.963C553.006 116.999 552.482 115.081 551.58 113.333C550.677 111.585 549.416 110.047 547.879 108.82C546.341 107.593 544.563 106.704 542.658 106.211C531.131 103.446 515.32 117.903 509.902 126.97C509.46 127.689 504.595 138.441 503.876 140.459C503.876 139.851 503.876 139.215 503.876 138.58C504.501 127.893 506.074 117.283 508.575 106.874C509.875 101.097 511.34 95.6512 513.109 90.2887C516.785 91.0903 533.592 94.5455 541.635 92.8317C549.679 91.1179 558.746 86.9439 562.284 79.37C563.168 77.6261 563.676 75.7159 563.775 73.7633C563.873 71.8106 563.561 69.859 562.857 68.0348C562.154 66.2106 561.075 64.5546 559.69 63.174C558.306 61.7934 556.647 60.719 554.821 60.0205C543.764 56.0953 526.349 68.6172 519.964 77.048C519.632 77.518 516.619 82.5765 514.436 86.2529C515.21 83.9033 515.984 81.4431 516.785 79.2041C519.743 70.7456 522.949 63.1993 525.879 56.5375C527.566 52.7506 529.169 49.3782 530.689 46.227C534.697 45.1213 550.813 40.5051 557.06 35.3636C563.307 30.2222 569.526 22.2612 569.167 13.9133C569.157 11.9474 568.732 10.0058 567.921 8.21511C567.11 6.42441 565.93 4.82482 564.459 3.52069C562.988 2.21656 561.258 1.23719 559.383 0.646441C557.508 0.0556925 555.53 -0.133154 553.577 0.0922136C541.857 1.77839 532.292 20.8515 530.496 31.2726C530.357 32.1571 529.556 46.5311 529.777 46.4758H529.998C528.478 49.4888 526.875 52.7229 525.188 56.2888C522.12 62.8952 518.72 70.4139 515.569 78.8171C512.069 87.8512 509.098 97.0808 506.668 106.459C503.879 116.944 502.029 127.656 501.14 138.469V138.856C500.338 135.484 497.795 126.141 497.519 125.422C493.621 115.609 480.297 98.9407 468.494 99.7146C466.535 99.8958 464.636 100.488 462.921 101.453C461.207 102.418 459.715 103.734 458.544 105.315C457.372 106.896 456.548 108.707 456.124 110.628C455.7 112.549 455.686 114.539 456.083 116.466C457.631 124.648 465.537 131.227 472.558 134.986Z" fill="#4E94E4"/>
<path d="M682.5 149.084C682.638 149.25 690.627 137.28 691.042 136.479C695.851 127.081 699.638 106.072 691.263 97.7798C689.833 96.4287 688.134 95.3938 686.277 94.7426C684.421 94.0914 682.448 93.8384 680.487 94C678.526 94.1617 676.621 94.7344 674.897 95.6809C673.172 96.6274 671.665 97.9265 670.476 99.4936C665.196 105.962 665.473 116.245 667.325 123.902C669.536 132.83 682.5 149.084 682.5 149.084Z" fill="#4E94E4"/>
<path d="M30.2561 200.028C39.074 202.792 59.7227 200.442 59.7227 200.442C59.7227 200.442 53.9731 187.34 53.5032 186.621C47.9748 177.555 32.1911 163.264 20.6643 165.973C18.764 166.475 16.9906 167.372 15.4594 168.605C13.9283 169.838 12.6736 171.379 11.7768 173.128C10.88 174.877 10.3613 176.795 10.2542 178.758C10.1471 180.721 10.4542 182.684 11.1554 184.521C13.892 192.371 22.9033 197.568 30.2561 200.028Z" fill="#4E94E4"/>
<path d="M43.1654 259.376C52.0662 259.818 70.006 252.687 71.4434 252.106C75.4901 262.375 80.2278 272.359 85.6238 281.987C88.7197 287.516 92.0091 293.21 95.4091 298.766C93.4742 296.444 91.7327 294.399 91.4839 294.15C83.8271 286.852 64.754 277.261 54.3605 282.9C52.662 283.891 51.1903 285.228 50.0403 286.823C48.8902 288.419 48.0874 290.237 47.6837 292.162C47.28 294.087 47.2843 296.075 47.6963 297.998C48.1084 299.921 48.919 301.737 50.076 303.327C54.8028 310.21 64.7263 312.891 72.6043 313.278C80.4824 313.665 96.0449 307.888 100.081 306.312C101.407 308.441 102.845 310.569 104.034 312.67C110.391 322.787 116.804 332.877 122.775 343.077C124.876 346.642 126.838 350.208 128.801 353.774C127.087 351.729 125.622 350.015 125.373 349.794C117.716 342.496 98.6709 332.904 88.2498 338.543C86.5511 339.531 85.0791 340.866 83.9295 342.459C82.7799 344.053 81.9783 345.871 81.5769 347.795C81.1755 349.719 81.1831 351.705 81.5993 353.626C82.0156 355.547 82.8311 357.358 83.9929 358.943C88.6921 365.854 98.6433 368.535 106.521 368.922C114.399 369.309 128.442 364.085 133.251 362.233C135.159 365.937 137.066 369.668 138.78 373.289C139.885 375.833 141.102 378.21 142.042 380.836C142.981 383.462 144.004 385.922 144.972 388.465C146.685 393.358 148.454 398.444 149.975 403.281C151.08 406.626 152.048 409.86 153.043 413.094C150.998 409.528 146.824 402.645 146.409 402.037C139.941 393.745 122.554 381.306 111.414 385.314C109.583 386.03 107.923 387.124 106.544 388.524C105.164 389.924 104.095 391.6 103.406 393.442C102.718 395.283 102.425 397.249 102.547 399.211C102.67 401.173 103.204 403.088 104.116 404.829C107.71 412.348 117.136 416.522 124.876 418.097C133.389 419.811 151.467 415.748 153.734 415.333C155.365 420.696 156.885 425.92 158.24 430.896C159.484 435.346 160.589 439.548 161.64 443.611L169.02 442.892C167.804 438.47 166.477 433.853 164.984 429.071C163.354 423.543 161.502 417.793 159.456 411.878C164.755 409.133 169.887 406.078 174.825 402.728C181.487 408.699 197.685 414.836 199.703 415.61C198.1 421.138 196.497 426.197 194.893 431.089C193.788 434.462 192.71 437.696 191.659 440.792L199.482 440.045C200.173 437.806 200.864 435.567 201.583 433.19C203.241 427.662 204.9 421.884 206.531 415.858C208.797 416.107 227.29 418.042 235.555 415.333C243.046 412.845 251.919 407.621 254.628 399.715C255.324 397.877 255.625 395.913 255.512 393.95C255.4 391.987 254.875 390.071 253.973 388.324C253.071 386.577 251.812 385.04 250.277 383.812C248.742 382.584 246.966 381.692 245.064 381.195C233.537 378.431 217.726 392.832 212.28 401.899C211.949 402.452 209.129 408.644 207.415 412.569C208.079 410.109 208.742 407.704 209.378 405.161C210.705 400.13 211.866 395.071 213.137 389.626C213.662 386.862 214.188 384.319 214.713 381.61C215.238 378.901 215.57 376.081 216.04 373.317C216.924 366.794 217.532 360.132 217.975 353.415C222.397 354.548 238.098 358.363 245.921 357.063C253.744 355.764 263.252 351.922 267.122 344.514C268.091 342.803 268.688 340.907 268.875 338.949C269.063 336.992 268.837 335.017 268.211 333.153C267.585 331.289 266.574 329.577 265.244 328.13C263.913 326.682 262.293 325.53 260.488 324.75C249.431 320.382 231.685 332.13 224.94 340.285C224.526 340.782 220.352 347.168 218.113 350.706C218.362 346.67 218.638 342.634 218.749 338.543C219.053 326.74 219.025 314.743 219.025 302.802C219.025 299.153 219.025 295.504 219.025 291.745C220.601 292.16 239.176 297.108 247.939 295.643C255.706 294.343 265.27 290.501 269.14 283.093C270.108 281.384 270.705 279.49 270.892 277.535C271.08 275.579 270.853 273.606 270.227 271.744C269.601 269.883 268.59 268.173 267.26 266.728C265.93 265.283 264.31 264.134 262.506 263.357C251.449 258.961 233.703 270.709 226.958 278.864C226.461 279.472 220.462 288.677 219.025 291.082C219.025 283.038 219.246 275.022 219.716 267.143C220.294 256.476 221.569 245.857 223.531 235.355C224.249 235.576 243.599 240.883 252.583 239.308C260.378 238.009 269.914 234.166 273.784 226.786C274.757 225.076 275.358 223.179 275.547 221.221C275.737 219.262 275.512 217.286 274.886 215.421C274.259 213.555 273.247 211.843 271.914 210.396C270.581 208.949 268.958 207.799 267.15 207.022C256.093 202.627 238.347 214.375 231.602 222.529C231.077 223.165 224.636 233.061 223.586 234.94C223.586 234.332 223.752 233.696 223.89 233.088C226.134 222.618 229.307 212.368 233.371 202.461C235.555 196.932 237.932 191.819 240.365 186.871C243.875 188.225 259.963 194.196 268.173 193.726C276.383 193.256 285.974 190.547 290.646 183.609C291.796 182.014 292.598 180.195 292.999 178.271C293.401 176.346 293.392 174.358 292.975 172.437C292.558 170.516 291.741 168.703 290.578 167.118C289.415 165.533 287.931 164.211 286.223 163.237C275.774 157.708 256.784 167.41 249.183 174.736C248.768 175.15 245.036 179.684 242.327 183.028C243.461 180.817 244.594 178.523 245.727 176.422C249.929 168.516 254.269 161.55 258.166 155.414C260.433 151.931 262.534 148.835 264.524 145.96C268.643 145.49 285.256 143.362 292.166 139.243C299.077 135.124 306.485 128.186 307.425 119.894C307.713 117.95 307.59 115.967 307.061 114.074C306.532 112.182 305.61 110.422 304.356 108.909C303.102 107.396 301.542 106.165 299.78 105.295C298.018 104.426 296.092 103.937 294.129 103.861C282.27 103.861 269.914 121.137 266.487 131.144C266.183 132.029 263.197 146.071 263.418 146.071H263.667C261.705 148.835 259.604 151.737 257.392 154.999C253.357 161.08 248.851 167.963 244.456 175.814C239.744 184.07 235.508 192.588 231.768 201.327C227.448 211.269 224.016 221.574 221.513 232.121V232.508C221.236 229.053 220.158 219.405 219.992 218.687C217.643 208.376 207.028 189.856 195.114 188.833C193.158 188.746 191.205 189.069 189.38 189.781C187.556 190.493 185.9 191.579 184.521 192.969C183.141 194.36 182.067 196.023 181.369 197.853C180.67 199.683 180.362 201.638 180.464 203.594C180.602 211.887 187.402 219.654 193.76 224.326C200.947 229.605 219.854 233.531 221.402 233.862C219.123 244.656 217.562 255.59 216.731 266.591C216.233 273.004 215.901 279.5 215.653 285.94C215.321 282.982 215.017 280.412 214.934 279.942C212.557 269.631 201.942 251.111 190.056 250.088C188.092 249.973 186.126 250.273 184.286 250.968C182.445 251.663 180.772 252.738 179.374 254.123C177.977 255.507 176.886 257.171 176.174 259.004C175.462 260.838 175.143 262.801 175.24 264.766C175.24 273.059 182.178 280.826 188.536 285.498C194.893 290.169 211.036 293.929 215.293 294.841C215.293 297.329 215.127 299.817 215.072 302.332C214.796 314.273 214.575 326.215 213.994 337.907C213.801 342.026 213.441 346.2 213.11 350.153C212.833 347.389 212.557 345.26 212.474 344.929C210.124 334.646 199.51 316.125 187.596 315.075C185.633 314.964 183.669 315.267 181.83 315.964C179.992 316.661 178.32 317.736 176.924 319.119C175.527 320.503 174.437 322.164 173.723 323.996C173.009 325.828 172.687 327.789 172.78 329.753C172.918 338.046 179.718 345.813 186.075 350.485C192.433 355.156 207.028 358.556 212.087 359.662C211.617 363.808 211.147 367.955 210.511 371.963C210.014 374.727 209.71 377.325 209.074 380.034C208.438 382.743 207.885 385.369 207.305 388.023C206.006 393.054 204.706 398.25 203.297 403.143C202.357 406.543 201.389 409.749 200.532 413.011C200.781 408.92 201.085 400.876 201.03 400.185C200.01 390.948 196.642 382.126 191.245 374.561C191.178 373.525 191.011 372.497 190.747 371.493C190.313 369.576 189.481 367.772 188.305 366.197C187.128 364.623 185.634 363.314 183.919 362.355C182.204 361.395 180.306 360.807 178.349 360.629C176.391 360.451 174.419 360.687 172.558 361.32C161.502 365.439 156.167 386.198 156.637 396.675C156.637 397.283 157.742 404.028 158.461 408.257C157.659 405.824 156.913 403.475 156.028 400.987C154.342 396.067 152.546 391.202 150.5 385.977L147.404 378.403C146.409 375.86 145.055 373.289 143.894 370.719C141.129 364.776 137.868 358.888 134.55 353.028C138.835 351.563 154.066 346.09 159.843 340.672C165.62 335.254 171.48 326.851 170.624 318.558C170.487 316.598 169.94 314.689 169.017 312.954C168.095 311.219 166.818 309.698 165.27 308.488C163.722 307.279 161.937 306.408 160.03 305.934C158.124 305.459 156.139 305.39 154.204 305.732C142.594 308.137 134.246 327.846 133.113 338.294C133.113 338.958 133.113 346.587 133.113 350.761C131.095 347.278 129.077 343.768 126.921 340.285C120.674 330.251 114.012 320.272 107.572 310.293C105.554 307.252 103.591 304.184 101.601 301.116C103.149 300.618 121.365 294.482 127.861 288.428C133.638 283.065 139.498 274.607 138.642 266.314C138.505 264.352 137.957 262.439 137.034 260.703C136.11 258.966 134.83 257.443 133.279 256.233C131.727 255.023 129.939 254.153 128.029 253.68C126.119 253.208 124.131 253.142 122.194 253.488C110.612 255.893 102.237 275.602 101.103 286.023C101.103 286.825 101.103 297.799 101.103 300.591C96.7359 293.846 92.4238 287.074 88.471 280.246C83.0775 271.033 78.2765 261.487 74.097 251.664C74.8157 251.415 93.8612 245.113 100.523 238.921C106.3 233.392 112.16 225.1 111.303 216.807C111.163 214.846 110.612 212.936 109.687 211.201C108.762 209.467 107.483 207.945 105.932 206.736C104.382 205.527 102.595 204.657 100.687 204.183C98.7789 203.708 96.7925 203.639 94.8563 203.981C83.2742 206.386 74.8986 226.095 73.7653 236.544C73.7653 237.373 73.7653 249.176 73.9312 251.305C73.6824 250.752 73.3783 250.171 73.1572 249.618C69.3081 239.601 66.3662 229.258 64.367 218.714C63.1507 212.937 62.2938 207.326 61.6028 201.853C65.2515 201.051 81.975 197.153 88.5815 192.233C95.188 187.313 101.684 179.739 101.739 171.391C101.817 169.428 101.481 167.47 100.753 165.644C100.026 163.819 98.922 162.167 97.5144 160.796C96.1068 159.425 94.4267 158.365 92.583 157.686C90.7392 157.006 88.7732 156.722 86.8124 156.851C75.0092 157.957 64.5605 176.56 62.2662 186.871C62.2662 187.451 61.5199 193.284 61.1052 197.54C60.8288 195.08 60.4971 192.537 60.2759 190.16C59.4467 181.259 59.2255 173.049 59.0873 165.752C59.0873 161.633 59.0873 157.874 59.0873 154.391C62.2662 151.627 74.9539 140.791 78.4368 133.494C81.9197 126.196 84.297 116.383 80.4824 108.947C79.6436 107.17 78.4412 105.589 76.953 104.306C75.4648 103.023 73.7239 102.067 71.8428 101.499C69.9617 100.931 67.9824 100.764 66.0328 101.009C64.0832 101.254 62.2067 101.906 60.5247 102.921C50.6012 109.334 49.8548 130.563 52.5914 140.874C52.8402 141.759 58.1199 155.137 58.2857 154.999L58.4792 154.833C58.4792 158.206 58.2304 161.827 58.1751 165.752C58.1751 173.049 58.1751 181.287 58.8662 190.271C59.4461 199.932 60.5999 209.55 62.3214 219.074C64.1531 229.756 66.9281 240.255 70.6141 250.448L70.78 250.807C68.6239 248.043 62.4873 240.635 61.8792 240.109C54.2223 232.812 35.1492 223.22 24.7557 228.859C23.0572 229.851 21.5855 231.187 20.4355 232.783C19.2854 234.378 18.4827 236.197 18.0789 238.122C17.6752 240.047 17.6795 242.035 18.0916 243.958C18.5036 245.881 19.3142 247.696 20.4712 249.287C25.3639 256.17 35.2874 258.851 43.1654 259.376Z" fill="#4E94E4"/>
<path d="M239.866 184.41C240.06 184.41 242.299 170.313 242.354 169.401C242.796 158.841 237.434 138.165 226.349 134.074C224.487 133.441 222.512 133.207 220.554 133.389C218.595 133.571 216.697 134.164 214.983 135.129C213.269 136.094 211.778 137.41 210.607 138.991C209.437 140.571 208.612 142.381 208.188 144.302C206.087 152.401 210.621 161.633 215.513 167.825C221.291 175.067 239.866 184.41 239.866 184.41Z" fill="#4E94E4"/>
<path d="M804.087 196.226H80.7808V983.672H804.087V196.226Z" fill="#F0F0F0" stroke="#263238" stroke-width="2" stroke-linejoin="round"/>
<path d="M585.859 465.482H487.204V563.722H585.859V465.482Z" fill="#4E94E4"/>
<path d="M803.795 196.28H80.4883V263.594H803.795V196.28Z" fill="#4E94E4" stroke="#263238" stroke-width="2" stroke-linejoin="round"/>
<path d="M803.795 196.28H80.4883V217.871H803.795V196.28Z" fill="#263238" stroke="#263238" stroke-width="2" stroke-linejoin="round"/>
<path d="M756.361 207.326C756.361 206.325 756.064 205.347 755.508 204.515C754.952 203.683 754.162 203.035 753.238 202.652C752.314 202.269 751.297 202.169 750.315 202.364C749.334 202.559 748.433 203.041 747.725 203.749C747.018 204.456 746.536 205.358 746.341 206.339C746.146 207.32 746.246 208.337 746.629 209.261C747.012 210.186 747.66 210.976 748.492 211.532C749.324 212.087 750.302 212.384 751.302 212.384C752.644 212.384 753.93 211.851 754.879 210.903C755.828 209.954 756.361 208.667 756.361 207.326Z" fill="#F0F0F0" stroke="#263238" stroke-width="2" stroke-linejoin="round"/>
<path d="M770.901 207.326C770.901 206.324 770.603 205.345 770.046 204.512C769.489 203.68 768.698 203.032 767.772 202.649C766.846 202.267 765.827 202.169 764.845 202.366C763.863 202.564 762.962 203.048 762.256 203.759C761.549 204.469 761.07 205.373 760.878 206.356C760.685 207.339 760.79 208.357 761.177 209.281C761.564 210.204 762.217 210.993 763.052 211.545C763.888 212.098 764.868 212.39 765.87 212.384C766.533 212.384 767.189 212.253 767.801 211.998C768.414 211.744 768.97 211.371 769.437 210.901C769.905 210.431 770.275 209.873 770.526 209.259C770.777 208.646 770.904 207.989 770.901 207.326Z" fill="#F0F0F0" stroke="#263238" stroke-width="2" stroke-linejoin="round"/>
<path d="M785.468 207.325C785.468 206.33 785.174 205.356 784.623 204.527C784.072 203.698 783.288 203.049 782.37 202.663C781.452 202.278 780.441 202.171 779.463 202.357C778.485 202.544 777.583 203.015 776.872 203.711C776.16 204.408 775.67 205.299 775.462 206.272C775.255 207.246 775.339 208.26 775.705 209.186C776.071 210.112 776.702 210.909 777.519 211.478C778.337 212.047 779.304 212.362 780.299 212.384C780.973 212.399 781.642 212.279 782.269 212.031C782.895 211.783 783.466 211.413 783.948 210.942C784.429 210.471 784.812 209.908 785.073 209.287C785.334 208.666 785.468 207.999 785.468 207.325Z" fill="#F0F0F0" stroke="#263238" stroke-width="2" stroke-linejoin="round"/>
<path d="M403.951 382.162C403.277 382.56 402.52 382.796 401.739 382.853V381.388C402.374 381.405 402.996 381.203 403.5 380.815C404.003 380.428 404.358 379.878 404.503 379.26H405.72V395.209H403.978L403.951 382.162Z" fill="#263238"/>
<path d="M506.365 383.13C506.365 387.94 500.974 389.681 500.836 393.33V393.579H506.088V395.21H499.095V393.855C499.095 388.686 504.485 387.691 504.485 383.213C504.485 381.582 503.932 380.697 502.633 380.697C501.334 380.697 500.753 381.637 500.753 383.047V384.457H499.095V383.158C499.095 380.725 500.2 379.122 502.661 379.122C505.121 379.122 506.365 380.697 506.365 383.13Z" fill="#263238"/>
<path d="M605.352 383.13V383.517C605.433 384.201 605.288 384.894 604.939 385.488C604.589 386.082 604.055 386.545 603.417 386.806C604.055 387.068 604.589 387.531 604.939 388.125C605.288 388.719 605.433 389.411 605.352 390.096V391.34C605.352 393.772 604.218 395.375 601.758 395.375C599.298 395.375 598.192 393.772 598.192 391.34V390.234H599.851V391.45C599.851 392.888 600.431 393.745 601.731 393.745C603.03 393.745 603.583 392.915 603.583 391.284V390.068C603.583 388.493 602.919 387.746 601.592 387.691H600.625V386.088H601.675C602.864 386.088 603.583 385.314 603.583 383.904V383.185C603.583 381.554 603.002 380.697 601.731 380.697C600.459 380.697 599.851 381.582 599.851 383.019V383.849H598.192V383.13C598.192 380.67 599.326 379.122 601.758 379.122C604.191 379.122 605.352 380.67 605.352 383.13Z" fill="#263238"/>
<path d="M701.988 392.058V395.265H700.275V392.058H695.105V390.427L700.053 379.37H701.988V390.427H703.26V392.058H701.988ZM696.764 390.427H700.275V382.66L696.764 390.427Z" fill="#263238"/>
<path d="M99.0019 483.277C99.2367 482.858 99.5832 482.512 100.003 482.278C100.423 482.044 100.899 481.93 101.379 481.951C103.425 481.951 104.337 483.471 104.337 485.738V488.806C104.337 491.238 103.176 492.842 100.743 492.842C98.3109 492.842 97.1499 491.238 97.1499 488.806V487.728H98.8085V488.806C98.8085 490.243 99.4166 491.1 100.688 491.1C101.96 491.1 102.568 490.243 102.568 488.806V485.71C102.568 484.273 101.96 483.416 100.688 483.416C100.457 483.408 100.227 483.447 100.011 483.53C99.7952 483.612 99.5979 483.737 99.4306 483.896C99.2634 484.056 99.1296 484.247 99.037 484.459C98.9444 484.67 98.8949 484.898 98.8914 485.13V485.489H97.2328L97.6474 476.616H103.95V478.219H99.2507L99.0019 483.277Z" fill="#263238"/>
<path d="M209.101 480.513V480.817H207.442V480.513C207.442 479.076 206.834 478.219 205.535 478.219C204.236 478.219 203.6 479.103 203.6 480.79V484.383C203.786 483.852 204.141 483.398 204.61 483.088C205.08 482.779 205.638 482.631 206.199 482.669C208.244 482.669 209.156 484.162 209.156 486.456V488.806C209.156 491.238 207.94 492.842 205.507 492.842C203.075 492.842 201.831 491.238 201.831 488.806V480.679C201.831 478.163 202.964 476.588 205.507 476.588C208.051 476.588 209.101 478.136 209.101 480.513ZM203.573 486.484V488.806C203.573 490.243 204.181 491.1 205.48 491.1C206.779 491.1 207.359 490.243 207.359 488.806V486.429C207.359 484.991 206.751 484.134 205.48 484.134C204.208 484.134 203.6 485.102 203.6 486.539L203.573 486.484Z" fill="#263238"/>
<path d="M304.688 478.329H299.159V476.726H306.374V478.274L302.255 492.676H300.486L304.688 478.329Z" fill="#263238"/>
<path d="M407.378 480.513V481.011C407.468 481.682 407.339 482.365 407.011 482.957C406.682 483.55 406.171 484.021 405.554 484.3C406.178 484.594 406.691 485.08 407.02 485.687C407.348 486.293 407.474 486.989 407.378 487.672V488.806C407.378 489.803 406.982 490.759 406.277 491.464C405.572 492.169 404.616 492.565 403.619 492.565C402.622 492.565 401.666 492.169 400.961 491.464C400.256 490.759 399.86 489.803 399.86 488.806V487.617C399.762 486.93 399.89 486.23 400.224 485.622C400.557 485.014 401.08 484.531 401.712 484.245C401.086 483.974 400.567 483.505 400.232 482.911C399.898 482.318 399.767 481.631 399.86 480.955V480.513C399.86 479.516 400.256 478.56 400.961 477.855C401.666 477.15 402.622 476.754 403.619 476.754C404.616 476.754 405.572 477.15 406.277 477.855C406.982 478.56 407.378 479.516 407.378 480.513ZM401.601 480.513V481.287C401.601 482.835 402.347 483.526 403.591 483.526C404.835 483.526 405.609 482.835 405.609 481.287V480.513C405.609 478.882 404.835 478.108 403.591 478.108C402.347 478.108 401.601 478.937 401.601 480.513ZM401.601 487.396V488.806C401.601 490.437 402.32 491.211 403.591 491.211C404.863 491.211 405.582 490.437 405.609 488.806V487.451C405.609 485.903 404.918 485.157 403.591 485.157C402.264 485.157 401.601 486.041 401.601 487.451V487.396Z" fill="#263238"/>
<path d="M506.337 480.513V488.806C506.337 491.321 505.204 492.924 502.633 492.924C500.063 492.924 499.04 491.349 499.04 488.916V488.612H500.698V489.027C500.698 490.464 501.334 491.293 502.606 491.293C503.877 491.293 504.541 490.437 504.541 488.75V485.185C504.355 485.708 504.003 486.156 503.539 486.46C503.075 486.765 502.524 486.909 501.97 486.871C499.924 486.871 499.012 485.406 499.012 483.111V480.513C499.012 478.08 500.201 476.505 502.661 476.505C505.121 476.505 506.337 478.163 506.337 480.513ZM500.809 480.513V482.918C500.809 484.355 501.417 485.212 502.689 485.212C503.96 485.212 504.568 484.355 504.568 482.918V480.513C504.568 479.076 503.988 478.219 502.689 478.219C501.389 478.219 500.781 479.048 500.781 480.513H500.809Z" fill="#263238"/>
<path d="M597.667 479.628C596.994 480.03 596.237 480.266 595.456 480.32V478.854C596.091 478.871 596.712 478.669 597.216 478.281C597.719 477.894 598.074 477.345 598.22 476.726H599.436V492.676H597.695L597.667 479.628Z" fill="#263238"/>
<path d="M601.979 480.513C601.979 478.08 603.168 476.505 605.6 476.505C608.033 476.505 609.277 478.08 609.277 480.513V488.806C609.277 491.238 608.06 492.841 605.6 492.841C603.14 492.841 601.979 491.238 601.979 488.806V480.513ZM603.72 488.806C603.72 490.243 604.329 491.1 605.6 491.1C606.872 491.1 607.507 490.243 607.507 488.806V480.513C607.507 479.076 606.899 478.191 605.6 478.191C604.301 478.191 603.72 479.076 603.72 480.513V488.806Z" fill="#263238"/>
<path d="M695.631 479.628C694.969 480.03 694.22 480.267 693.447 480.32V478.854C694.082 478.871 694.704 478.669 695.208 478.281C695.711 477.894 696.066 477.345 696.211 476.726H697.372V492.676H695.603L695.631 479.628Z" fill="#263238"/>
<path d="M703.343 479.628C702.669 480.026 701.912 480.262 701.132 480.32V478.854C701.767 478.871 702.389 478.669 702.892 478.281C703.396 477.894 703.75 477.345 703.896 476.726H705.112V492.676H703.371L703.343 479.628Z" fill="#263238"/>
<path d="M100.495 577.095C99.8209 577.492 99.0642 577.729 98.2837 577.786V576.321C98.9151 576.339 99.5338 576.141 100.037 575.759C100.54 575.377 100.897 574.834 101.048 574.22H102.292V590.142H100.55L100.495 577.095Z" fill="#263238"/>
<path d="M112.105 578.09C112.105 582.872 106.576 584.614 106.576 588.29V588.539H111.801V590.142H104.807V588.788C104.807 583.646 110.336 582.624 110.336 578.146C110.336 576.515 109.81 575.658 108.484 575.658C107.157 575.658 106.604 576.57 106.604 577.98V579.389H104.945V578.09C104.945 575.658 106.051 574.054 108.511 574.054C110.971 574.054 112.105 575.658 112.105 578.09Z" fill="#263238"/>
<path d="M201.389 577.095C200.715 577.492 199.958 577.729 199.178 577.786V576.321C199.809 576.339 200.428 576.141 200.931 575.759C201.434 575.377 201.791 574.834 201.942 574.22H203.158V590.142H201.417L201.389 577.095Z" fill="#263238"/>
<path d="M212.916 578.063V578.477C212.994 579.161 212.844 579.852 212.489 580.442C212.134 581.031 211.594 581.488 210.953 581.739C211.598 582.001 212.14 582.467 212.494 583.066C212.849 583.665 212.997 584.365 212.916 585.056V586.272C212.916 588.705 211.755 590.308 209.294 590.308C206.834 590.308 205.729 588.705 205.729 586.272V585.194H207.387V586.383C207.387 587.82 207.995 588.705 209.267 588.705C210.538 588.705 211.119 587.848 211.119 586.245V585.001C211.119 583.425 210.455 582.679 209.129 582.624H208.106V581.048H209.156C209.432 581.051 209.705 580.994 209.956 580.881C210.208 580.769 210.432 580.603 210.613 580.395C210.794 580.188 210.928 579.944 211.006 579.679C211.084 579.415 211.104 579.137 211.064 578.864V578.118C211.064 576.487 210.511 575.658 209.212 575.658C207.912 575.658 207.332 576.542 207.332 577.98V578.781H205.673V578.063C205.673 575.63 206.807 574.054 209.239 574.054C211.672 574.054 212.916 575.63 212.916 578.063Z" fill="#263238"/>
<path d="M298.634 577.095C297.96 577.492 297.203 577.729 296.422 577.786V576.321C297.054 576.339 297.672 576.141 298.175 575.759C298.678 575.377 299.035 574.834 299.187 574.22H300.403V590.142H298.661L298.634 577.095Z" fill="#263238"/>
<path d="M309.525 586.935V590.142H307.811V586.935H302.67V585.332L307.59 574.275H309.525V585.332H310.824V586.935H309.525ZM304.301 585.332H307.811V577.537L304.301 585.332Z" fill="#263238"/>
<path d="M399.528 577.095C398.857 577.5 398.098 577.737 397.316 577.786V576.321C397.948 576.339 398.566 576.141 399.069 575.759C399.572 575.377 399.929 574.834 400.081 574.22H401.324V590.142H399.555L399.528 577.095Z" fill="#263238"/>
<path d="M405.748 580.689C405.984 580.272 406.331 579.93 406.751 579.7C407.171 579.471 407.647 579.363 408.125 579.389C410.17 579.389 411.082 580.882 411.082 583.149V586.272C411.082 588.705 409.922 590.308 407.489 590.308C405.057 590.308 403.896 588.705 403.896 586.272V585.222H405.582V586.383C405.582 587.82 406.162 588.705 407.434 588.705C408.705 588.705 409.313 587.82 409.313 586.383V583.287C409.313 581.849 408.705 580.993 407.434 580.993C407.203 580.985 406.973 581.024 406.757 581.106C406.541 581.189 406.344 581.313 406.176 581.473C406.009 581.633 405.875 581.824 405.783 582.035C405.69 582.247 405.641 582.475 405.637 582.706V583.066H403.978L404.421 574.22H410.696V575.796H405.996L405.748 580.689Z" fill="#263238"/>
<path d="M498.598 577.095C497.923 577.492 497.167 577.729 496.386 577.786V576.321C497.018 576.339 497.636 576.141 498.139 575.759C498.642 575.377 498.999 574.834 499.15 574.22H500.367V590.142H498.625L498.598 577.095Z" fill="#263238"/>
<path d="M510.18 578.035V578.339H508.521V577.924C508.521 576.487 507.913 575.658 506.614 575.658C505.315 575.658 504.679 576.515 504.679 578.228V581.794C504.865 581.264 505.22 580.809 505.689 580.499C506.158 580.19 506.716 580.043 507.277 580.08C509.323 580.08 510.235 581.573 510.235 583.867V586.272C510.235 588.705 509.019 590.308 506.586 590.308C504.154 590.308 502.91 588.705 502.91 586.272V578.146C502.91 575.63 504.043 574.054 506.586 574.054C509.129 574.054 510.18 575.602 510.18 578.035ZM504.651 584.006V586.383C504.651 587.82 505.259 588.705 506.558 588.705C507.858 588.705 508.438 587.82 508.438 586.383V584.006C508.438 582.568 507.83 581.711 506.558 581.711C505.287 581.711 504.679 582.568 504.679 584.006H504.651Z" fill="#263238"/>
<path d="M597.695 577.095C597.021 577.492 596.264 577.729 595.483 577.786V576.321C596.115 576.339 596.733 576.141 597.236 575.759C597.739 575.377 598.096 574.834 598.248 574.22H599.464V590.142H597.722L597.695 577.095Z" fill="#263238"/>
<path d="M607.424 575.796H601.896V574.22H609.111V575.768L605.02 590.142H603.389L607.424 575.796Z" fill="#263238"/>
<path d="M695.022 577.095C694.352 577.5 693.593 577.737 692.811 577.786V576.321C693.442 576.339 694.061 576.141 694.564 575.759C695.067 575.377 695.424 574.834 695.575 574.22H696.819V590.142H695.05L695.022 577.095Z" fill="#263238"/>
<path d="M706.771 577.98V578.477C706.865 579.149 706.738 579.834 706.409 580.427C706.08 581.021 705.566 581.491 704.946 581.767C705.57 582.061 706.084 582.547 706.412 583.153C706.74 583.76 706.866 584.456 706.771 585.139V586.328C706.771 587.325 706.375 588.281 705.67 588.986C704.965 589.691 704.008 590.087 703.011 590.087C702.014 590.087 701.058 589.691 700.353 588.986C699.648 588.281 699.252 587.325 699.252 586.328V585.139C699.163 584.453 699.295 583.757 699.628 583.151C699.961 582.544 700.478 582.06 701.104 581.767C700.479 581.495 699.959 581.027 699.625 580.433C699.291 579.839 699.16 579.152 699.252 578.477V577.98C699.252 576.983 699.648 576.026 700.353 575.321C701.058 574.616 702.014 574.22 703.011 574.22C704.008 574.22 704.965 574.616 705.67 575.321C706.375 576.026 706.771 576.983 706.771 577.98ZM701.021 577.98V578.754C701.021 580.301 701.767 580.993 703.011 580.993C704.255 580.993 705.029 580.301 705.029 578.754V577.98C705.029 576.349 704.283 575.602 703.011 575.602C701.74 575.602 701.021 576.404 701.021 578.035V577.98ZM701.021 584.89V586.217C701.021 587.875 701.74 588.649 703.011 588.649C704.283 588.649 705.002 587.875 705.029 586.217V584.89C705.029 583.342 704.338 582.568 703.011 582.568C701.685 582.568 701.021 583.397 701.021 584.945V584.89Z" fill="#263238"/>
<path d="M100.495 674.561C99.8209 674.959 99.0642 675.195 98.2837 675.252V673.787C98.9151 673.806 99.5338 673.607 100.037 673.225C100.54 672.843 100.897 672.3 101.048 671.687H102.292V687.608H100.55L100.495 674.561Z" fill="#263238"/>
<path d="M112.077 675.529V683.655C112.077 686.171 110.943 687.774 108.373 687.774C105.802 687.774 104.779 686.198 104.779 683.766V683.462H106.438V683.877C106.438 685.314 107.073 686.171 108.345 686.171C109.616 686.171 110.308 685.286 110.308 683.6V680.034C110.121 680.562 109.765 681.014 109.295 681.319C108.825 681.623 108.267 681.765 107.709 681.72C105.664 681.72 104.751 680.255 104.751 677.961V675.529C104.751 673.096 105.94 671.521 108.4 671.521C110.86 671.521 112.077 673.096 112.077 675.529ZM106.548 675.529V677.906C106.548 679.343 107.156 680.2 108.428 680.2C109.699 680.2 110.335 679.343 110.335 677.906V675.529C110.335 674.064 109.727 673.207 108.428 673.207C107.129 673.207 106.521 674.008 106.521 675.446L106.548 675.529Z" fill="#263238"/>
<path d="M204.706 675.557C204.706 680.366 199.178 682.08 199.178 685.757V686.005H204.43V687.609H197.436V686.254C197.436 681.113 202.826 680.118 202.826 675.612C202.826 673.981 202.273 673.124 200.974 673.124C199.675 673.124 199.095 674.036 199.095 675.446V676.773H197.436V675.474C197.436 673.014 198.542 671.41 201.002 671.41C203.462 671.41 204.706 673.124 204.706 675.557Z" fill="#263238"/>
<path d="M206.226 675.529C206.226 673.096 207.415 671.521 209.875 671.521C212.335 671.521 213.524 673.096 213.524 675.529V683.821C213.524 686.254 212.307 687.857 209.875 687.857C207.442 687.857 206.226 686.254 206.226 683.821V675.529ZM207.968 683.821C207.968 685.259 208.576 686.143 209.875 686.143C211.174 686.143 211.755 685.259 211.755 683.821V675.529C211.755 674.064 211.146 673.207 209.875 673.207C208.603 673.207 207.968 674.064 207.968 675.529V683.821Z" fill="#263238"/>
<path d="M302.697 675.557C302.697 680.366 297.169 682.08 297.169 685.757V686.005H302.393V687.609H295.4V686.254C295.4 681.113 300.928 680.118 300.928 675.612C300.928 673.981 300.376 673.124 299.049 673.124C297.722 673.124 297.197 674.036 297.197 675.446V676.773H295.51V675.474C295.51 673.014 296.644 671.41 299.104 671.41C301.564 671.41 302.697 673.124 302.697 675.557Z" fill="#263238"/>
<path d="M307.618 674.561C306.947 674.966 306.188 675.203 305.406 675.252V673.787C306.038 673.806 306.656 673.607 307.159 673.225C307.662 672.843 308.019 672.3 308.17 671.687H309.387V687.608H307.618V674.561Z" fill="#263238"/>
<path d="M402.9 675.557C402.9 680.366 397.372 682.08 397.372 685.757V686.005H402.596V687.609H395.603V686.254C395.603 681.113 400.993 680.118 400.993 675.612C400.993 673.981 400.468 673.124 399.141 673.124C397.814 673.124 397.261 674.036 397.261 675.446V676.773H395.603V675.474C395.603 673.014 396.736 671.41 399.196 671.41C401.656 671.41 402.9 673.124 402.9 675.557Z" fill="#263238"/>
<path d="M411.718 675.557C411.718 680.366 406.19 682.08 406.19 685.757V686.005H411.442V687.609H404.448V686.254C404.448 681.113 409.839 680.118 409.839 675.612C409.839 673.981 409.313 673.124 407.986 673.124C406.66 673.124 406.107 674.036 406.107 675.446V676.773H404.448V675.474C404.448 673.014 405.554 671.41 408.014 671.41C410.474 671.41 411.718 673.124 411.718 675.557Z" fill="#263238"/>
<path d="M501.97 675.557C501.97 680.366 496.579 682.08 496.441 685.757V686.005H501.666V687.609H494.7V686.254C494.7 681.113 500.09 680.118 500.09 675.612C500.09 673.981 499.537 673.124 498.21 673.124C496.883 673.124 496.358 674.036 496.358 675.446V676.773H494.7V675.474C494.7 673.014 495.805 671.41 498.266 671.41C500.726 671.41 501.97 673.124 501.97 675.557Z" fill="#263238"/>
<path d="M510.677 675.529V675.943C510.757 676.624 510.611 677.312 510.261 677.901C509.911 678.491 509.378 678.949 508.742 679.205C509.385 679.467 509.923 679.935 510.273 680.535C510.623 681.135 510.765 681.833 510.677 682.522V683.738C510.677 686.171 509.544 687.774 507.083 687.774C504.623 687.774 503.518 686.171 503.518 683.738V682.66H505.176V683.849C505.176 685.286 505.784 686.171 507.056 686.171C508.327 686.171 508.908 685.314 508.908 683.711V682.467C508.908 680.891 508.244 680.145 506.918 680.117H505.95V678.514H507.001C507.276 678.517 507.549 678.46 507.8 678.347C508.052 678.235 508.276 678.069 508.457 677.861C508.638 677.654 508.773 677.41 508.85 677.145C508.928 676.881 508.948 676.603 508.908 676.33V675.584C508.908 673.953 508.355 673.124 507.056 673.124C505.757 673.124 505.176 674.008 505.176 675.446V676.247H503.518V675.529C503.518 673.096 504.651 671.521 507.083 671.521C509.516 671.521 510.677 673.096 510.677 675.529Z" fill="#263238"/>
<path d="M600.901 675.557C600.901 680.366 595.373 682.08 595.373 685.757V686.005H600.625V687.609H593.714V686.254C593.714 681.113 599.243 680.118 599.243 675.612C599.243 673.981 598.69 673.124 597.363 673.124C596.036 673.124 595.511 674.036 595.511 675.446V676.773H593.825V675.474C593.825 673.014 594.958 671.41 597.418 671.41C599.879 671.41 600.901 673.124 600.901 675.557Z" fill="#263238"/>
<path d="M608.918 684.402V687.608H607.176V684.402H602.035V682.799L606.983 671.742H608.918V682.799H610.189V684.402H608.918ZM603.693 682.799H607.176V675.003L603.693 682.799Z" fill="#263238"/>
<path d="M698.45 675.557C698.45 680.366 693.06 682.08 692.922 685.757V686.005H698.146V687.609H691.153V686.254C691.153 681.113 696.681 680.118 696.681 675.612C696.681 673.981 696.128 673.124 694.802 673.124C693.475 673.124 692.95 674.036 692.95 675.446V676.773H691.263V675.474C691.263 673.014 692.397 671.41 694.857 671.41C697.317 671.41 698.45 673.124 698.45 675.557Z" fill="#263238"/>
<path d="M701.85 678.155C702.086 677.738 702.434 677.396 702.854 677.167C703.274 676.937 703.75 676.829 704.228 676.856C706.273 676.856 707.185 678.348 707.185 680.615V683.738C707.185 686.171 706.024 687.774 703.592 687.774C701.159 687.774 700.026 686.171 700.026 683.738V682.688H701.684V683.849C701.684 685.286 702.265 686.171 703.536 686.171C704.808 686.171 705.416 685.286 705.416 683.849V680.753C705.416 679.316 704.808 678.459 703.536 678.459C703.305 678.451 703.075 678.49 702.859 678.573C702.644 678.655 702.446 678.78 702.279 678.939C702.112 679.099 701.978 679.29 701.885 679.502C701.793 679.714 701.743 679.942 701.74 680.173V680.532H700.136L700.579 671.687H706.854V673.262H702.154L701.85 678.155Z" fill="#263238"/>
<path d="M104.392 773.023C104.392 777.833 99.0022 779.546 98.864 783.223V783.472H104.116V785.075H97.1226V783.72C97.1226 778.579 102.651 777.584 102.651 773.078C102.651 771.447 102.098 770.59 100.771 770.59C99.4445 770.59 98.9193 771.503 98.9193 772.94V774.35H97.2607V773.05C97.2607 770.618 98.3664 768.987 100.827 768.987C103.287 768.987 104.392 770.59 104.392 773.023Z" fill="#263238"/>
<path d="M113.183 772.968V773.272H111.524V772.857C111.524 771.42 110.943 770.59 109.644 770.59C108.345 770.59 107.709 771.447 107.709 773.161V776.727C107.894 776.201 108.245 775.75 108.709 775.441C109.172 775.132 109.724 774.982 110.28 775.013C112.326 775.013 113.238 776.506 113.238 778.8V781.205C113.238 783.665 112.022 785.241 109.589 785.241C107.157 785.241 105.913 783.665 105.913 781.205V773.078C105.913 770.563 107.074 768.987 109.589 768.987C112.104 768.987 113.183 770.535 113.183 772.968ZM107.654 778.938V781.343C107.654 782.753 108.235 783.637 109.534 783.637C110.833 783.637 111.413 782.753 111.413 781.343V779.049C111.413 777.611 110.805 776.755 109.534 776.755C108.262 776.755 107.709 777.501 107.709 779.049L107.654 778.938Z" fill="#263238"/>
<path d="M204.734 773.023C204.734 777.833 199.344 779.546 199.205 783.223V783.472H204.457V785.075H197.464V783.72C197.464 778.579 202.854 777.584 202.854 773.078C202.854 771.447 202.301 770.59 200.974 770.59C199.648 770.59 199.122 771.503 199.122 772.94V774.35H197.464V773.05C197.464 770.618 198.57 768.987 201.03 768.987C203.49 768.987 204.734 770.59 204.734 773.023Z" fill="#263238"/>
<path d="M211.672 770.756H206.144V769.181H213.358V770.756L209.267 785.13H207.498L211.672 770.756Z" fill="#263238"/>
<path d="M302.089 773.023C302.089 777.833 296.561 779.546 296.561 783.223V783.472H301.785V785.075H294.902V783.72C294.902 778.579 300.431 777.584 300.431 773.078C300.431 771.447 299.906 770.59 298.579 770.59C297.252 770.59 296.699 771.503 296.699 772.94V774.35H295.041V773.05C295.041 770.618 296.174 768.987 298.634 768.987C301.094 768.987 302.089 770.59 302.089 773.023Z" fill="#263238"/>
<path d="M311.018 772.94V773.52C311.111 774.188 310.983 774.869 310.653 775.457C310.324 776.046 309.811 776.511 309.193 776.782C309.817 777.076 310.331 777.562 310.659 778.169C310.987 778.775 311.113 779.471 311.018 780.154V781.343C311.062 781.862 310.999 782.384 310.831 782.877C310.663 783.37 310.394 783.823 310.042 784.207C309.69 784.591 309.262 784.897 308.785 785.106C308.308 785.316 307.793 785.424 307.272 785.424C306.751 785.424 306.236 785.316 305.759 785.106C305.283 784.897 304.855 784.591 304.502 784.207C304.15 783.823 303.882 783.37 303.714 782.877C303.546 782.384 303.482 781.862 303.527 781.343V780.154C303.431 779.471 303.557 778.775 303.885 778.169C304.213 777.562 304.727 777.076 305.351 776.782C304.733 776.511 304.22 776.046 303.891 775.457C303.562 774.869 303.434 774.188 303.527 773.52V773.023C303.482 772.504 303.546 771.981 303.714 771.488C303.882 770.995 304.15 770.542 304.502 770.159C304.855 769.775 305.283 769.469 305.759 769.259C306.236 769.049 306.751 768.941 307.272 768.941C307.793 768.941 308.308 769.049 308.785 769.259C309.262 769.469 309.69 769.775 310.042 770.159C310.394 770.542 310.663 770.995 310.831 771.488C310.999 771.981 311.062 772.504 311.018 773.023V772.94ZM305.268 772.94V773.714C305.268 775.262 306.014 775.953 307.258 775.953C308.502 775.953 309.276 775.262 309.276 773.714V772.94C309.276 771.309 308.53 770.562 307.258 770.562C305.987 770.562 305.268 771.336 305.268 772.967V772.94ZM305.268 779.85V781.177C305.268 782.836 305.987 783.61 307.258 783.61C308.53 783.61 309.249 782.836 309.276 781.177V779.85C309.276 778.302 308.585 777.556 307.258 777.556C305.932 777.556 305.268 778.33 305.268 779.878V779.85Z" fill="#263238"/>
<path d="M402.873 773.023C402.873 777.833 397.482 779.546 397.344 783.223V783.472H402.569V785.075H395.575V783.72C395.575 778.579 401.104 777.584 401.104 773.078C401.104 771.447 400.551 770.59 399.224 770.59C397.897 770.59 397.372 771.503 397.372 772.94V774.35H395.686V773.05C395.686 770.618 396.819 768.987 399.279 768.987C401.739 768.987 402.873 770.59 402.873 773.023Z" fill="#263238"/>
<path d="M411.663 772.995V781.122C411.663 783.665 410.53 785.241 407.959 785.241C405.388 785.241 404.366 783.665 404.366 781.233V780.956H406.024V781.343C406.024 782.781 406.66 783.637 407.931 783.637C409.203 783.637 409.894 782.753 409.894 781.067V777.501C409.707 778.029 409.351 778.48 408.881 778.785C408.411 779.09 407.854 779.231 407.296 779.187C405.25 779.187 404.338 777.722 404.338 775.428V772.995C404.338 770.563 405.527 768.987 407.987 768.987C410.447 768.987 411.663 770.563 411.663 772.995ZM406.135 772.995V775.372C406.135 776.81 406.743 777.667 408.014 777.667C409.286 777.667 409.922 776.81 409.922 775.372V772.995C409.922 771.53 409.314 770.701 408.014 770.701C406.715 770.701 406.107 771.447 406.107 772.912L406.135 772.995Z" fill="#263238"/>
<path d="M501.859 772.995V773.52C501.935 774.2 501.787 774.887 501.437 775.475C501.088 776.063 500.557 776.522 499.924 776.782C500.564 777.048 501.1 777.517 501.449 778.116C501.799 778.714 501.943 779.411 501.859 780.099V781.316C501.859 783.776 500.726 785.351 498.266 785.351C495.806 785.351 494.672 783.776 494.672 781.316V780.237H496.358V781.454C496.358 782.863 496.939 783.748 498.211 783.748C499.482 783.748 500.09 782.891 500.09 781.288V780.044C500.09 778.468 499.427 777.722 498.072 777.694H497.132V776.091H498.155C498.432 776.093 498.705 776.037 498.958 775.924C499.211 775.812 499.436 775.646 499.619 775.439C499.803 775.233 499.94 774.989 500.021 774.724C500.102 774.46 500.126 774.182 500.09 773.907V773.189C500.09 771.53 499.51 770.701 498.211 770.701C496.911 770.701 496.358 771.585 496.358 773.023V773.824H494.672V773.106C494.672 770.673 495.833 769.098 498.266 769.098C500.698 769.098 501.859 770.563 501.859 772.995Z" fill="#263238"/>
<path d="M503.435 772.995C503.435 770.563 504.651 768.987 507.084 768.987C509.516 768.987 510.76 770.563 510.76 772.995V781.288C510.76 783.748 509.544 785.324 507.084 785.324C504.624 785.324 503.435 783.748 503.435 781.288V772.995ZM505.204 781.288C505.204 782.698 505.812 783.582 507.084 783.582C508.355 783.582 508.991 782.698 508.991 781.288V772.857C508.991 771.392 508.383 770.535 507.084 770.535C505.785 770.535 505.204 771.392 505.204 772.857V781.288Z" fill="#263238"/>
<path d="M591.033 772.995C591.033 770.563 592.249 768.987 594.682 768.987C597.114 768.987 598.33 770.563 598.33 772.995V781.288C598.33 783.72 597.142 785.296 594.682 785.296C592.221 785.296 591.033 783.72 591.033 781.288V772.995ZM592.774 781.288C592.774 782.725 593.41 783.582 594.682 783.582C595.953 783.582 596.561 782.725 596.561 781.288V772.857C596.561 771.42 595.981 770.563 594.682 770.563C593.382 770.563 592.774 771.42 592.774 772.857V781.288Z" fill="#CCCCCC"/>
<path d="M607.065 772.995V774.432H605.379V772.912C605.379 771.475 604.799 770.618 603.5 770.618C602.2 770.618 601.647 771.475 601.647 772.912V781.343C601.647 782.753 602.228 783.637 603.5 783.637C604.771 783.637 605.379 782.753 605.379 781.343V779.27H607.065V781.232C607.065 783.665 605.932 785.241 603.472 785.241C601.012 785.241 599.878 783.665 599.878 781.232V772.94C599.878 770.535 601.012 768.932 603.472 768.932C605.932 768.932 607.065 770.59 607.065 772.995Z" fill="#CCCCCC"/>
<path d="M610.963 785.075V770.756H608.033V769.153H615.662V770.756H612.732V785.075H610.963Z" fill="#CCCCCC"/>
<path d="M617.21 782.891V785.075H615.496V782.891H617.21Z" fill="#CCCCCC"/>
<path d="M625.807 772.028C625.142 772.446 624.38 772.684 623.595 772.719V771.254C624.227 771.272 624.845 771.074 625.348 770.691C625.851 770.309 626.208 769.766 626.359 769.153H627.603V785.075H625.834L625.807 772.028Z" fill="#CCCCCC"/>
<path d="M702.901 773.023C702.901 777.833 697.372 779.546 697.372 783.223V783.472H702.624V785.075H695.631V783.72C695.631 778.579 701.021 777.584 701.021 773.078C701.021 771.447 700.468 770.59 699.141 770.59C697.815 770.59 697.289 771.503 697.289 772.94V774.35H695.631V773.05C695.631 770.618 696.737 768.987 699.197 768.987C701.657 768.987 702.901 770.59 702.901 773.023Z" fill="#CCCCCC"/>
<path d="M104.309 870.461V870.876C104.382 871.559 104.233 872.248 103.885 872.84C103.536 873.432 103.007 873.897 102.375 874.165C103.015 874.423 103.553 874.885 103.903 875.48C104.253 876.075 104.396 876.77 104.309 877.455V878.699C104.309 881.131 103.176 882.707 100.716 882.707C98.2559 882.707 97.1226 881.131 97.1226 878.699V877.593H98.8087V878.809C98.8087 880.247 99.3892 881.104 100.661 881.104C101.932 881.104 102.54 880.247 102.54 878.643V877.399C102.54 875.851 101.877 875.078 100.523 875.05H99.5827V873.447H100.605C100.882 873.449 101.156 873.392 101.408 873.279C101.661 873.167 101.886 873.002 102.07 872.795C102.253 872.588 102.39 872.344 102.471 872.08C102.552 871.816 102.576 871.537 102.54 871.263V870.544C102.54 868.886 101.96 868.056 100.661 868.056C99.3616 868.056 98.8087 868.941 98.8087 870.378V871.208H97.1226V870.461C97.1226 868.029 98.2835 866.453 100.716 866.453C103.149 866.453 104.309 868.029 104.309 870.461Z" fill="#CCCCCC"/>
<path d="M208.299 879.334V882.569H206.557V879.334H201.416V877.731L206.364 866.674H208.299V877.731H209.57V879.334H208.299ZM203.047 877.731H206.557V869.936L203.047 877.731Z" fill="#CCCCCC"/>
<path d="M301.149 873.032C301.379 872.609 301.725 872.259 302.146 872.024C302.566 871.789 303.045 871.679 303.527 871.705C305.572 871.705 306.484 873.198 306.484 875.492V878.616C306.484 881.048 305.323 882.624 302.891 882.624C300.458 882.624 299.297 881.048 299.297 878.616V877.538H300.956V878.727C300.956 880.164 301.564 881.021 302.836 881.021C304.107 881.021 304.688 880.164 304.688 878.727V875.796C304.688 874.359 304.107 873.475 302.836 873.475C302.604 873.463 302.372 873.499 302.154 873.58C301.937 873.661 301.738 873.786 301.57 873.946C301.402 874.106 301.268 874.299 301.177 874.513C301.085 874.726 301.039 874.956 301.039 875.188V875.548H299.325L299.74 866.702H306.042V868.305H301.343L301.149 873.032Z" fill="#CCCCCC"/>
<path d="M407.129 870.434V870.738H405.471V870.268C405.471 868.83 404.89 868.001 403.591 868.001C402.292 868.001 401.656 868.858 401.656 870.572V874.138C401.845 873.614 402.197 873.166 402.659 872.857C403.122 872.549 403.672 872.397 404.227 872.424C406.273 872.424 407.185 873.917 407.185 876.211V878.643C407.185 881.076 405.969 882.651 403.536 882.651C401.103 882.651 399.887 881.076 399.887 878.643V870.544C399.887 868.029 401.021 866.453 403.536 866.453C406.051 866.453 407.129 868.001 407.129 870.434ZM401.601 876.404V878.809C401.601 880.247 402.181 881.104 403.481 881.104C404.78 881.104 405.388 880.247 405.388 878.809V876.404C405.388 874.967 404.752 874.11 403.481 874.11C402.209 874.11 401.767 874.967 401.767 876.404H401.601Z" fill="#CCCCCC"/>
<path d="M504.513 868.222H498.984V866.619H506.199V868.167L502.108 882.569H500.311L504.513 868.222Z" fill="#CCCCCC"/>
<path d="M605.545 870.406V870.904C605.633 871.572 605.503 872.25 605.174 872.838C604.845 873.426 604.336 873.891 603.72 874.166C604.339 874.466 604.847 874.954 605.175 875.559C605.502 876.163 605.631 876.856 605.545 877.538V878.727C605.545 879.724 605.149 880.68 604.444 881.385C603.739 882.09 602.783 882.486 601.786 882.486C600.788 882.486 599.832 882.09 599.127 881.385C598.422 880.68 598.026 879.724 598.026 878.727V877.538C597.931 876.855 598.057 876.159 598.385 875.552C598.713 874.946 599.227 874.46 599.851 874.166C599.233 873.895 598.72 873.43 598.391 872.841C598.061 872.252 597.933 871.572 598.026 870.904V870.406C598.026 869.409 598.422 868.453 599.127 867.748C599.832 867.043 600.788 866.647 601.786 866.647C602.783 866.647 603.739 867.043 604.444 867.748C605.149 868.453 605.545 869.409 605.545 870.406ZM599.768 870.406V871.18C599.768 872.728 600.514 873.419 601.786 873.419C603.057 873.419 603.776 872.728 603.776 871.18V870.406C603.776 868.775 603.029 868.029 601.786 868.029C600.542 868.029 599.768 868.803 599.768 870.434V870.406ZM599.768 877.317V878.671C599.768 880.302 600.514 881.076 601.786 881.076C603.057 881.076 603.748 880.302 603.776 878.671V877.317C603.776 875.769 603.085 875.023 601.786 875.023C600.486 875.023 599.768 875.797 599.768 877.344V877.317Z" fill="#CCCCCC"/>
<path d="M702.901 870.462V878.561C702.901 881.104 701.74 882.679 699.197 882.679C696.654 882.679 695.603 881.104 695.603 878.671V878.561H697.262V878.948C697.262 880.385 697.87 881.242 699.142 881.242C700.413 881.242 701.104 880.385 701.104 878.699V875.106C700.922 875.631 700.571 876.082 700.106 876.387C699.641 876.692 699.088 876.834 698.533 876.792C696.488 876.792 695.576 875.327 695.576 873.032V870.6C695.576 868.167 696.764 866.592 699.224 866.592C701.685 866.592 702.901 868.029 702.901 870.462ZM697.372 870.462V872.839C697.372 874.276 697.981 875.161 699.252 875.161C700.524 875.161 701.132 874.276 701.132 872.839V870.268C701.132 868.803 700.551 867.974 699.252 867.974C697.953 867.974 697.372 868.914 697.372 870.268V870.462Z" fill="#CCCCCC"/>
<path d="M134.467 341.169V341.584H132.781V341.086C132.781 339.649 132.256 338.792 130.984 338.792C129.713 338.792 129.16 339.649 129.16 341.058C129.16 344.624 134.495 344.956 134.495 349.351C134.495 351.756 133.334 353.332 130.901 353.332C128.469 353.332 127.335 351.756 127.335 349.351V348.439H128.994V349.434C128.994 350.871 129.574 351.701 130.846 351.701C132.118 351.701 132.726 350.871 132.726 349.434C132.726 345.868 127.391 345.536 127.391 341.141C127.391 338.681 128.524 337.161 130.929 337.161C133.334 337.161 134.467 338.736 134.467 341.169Z" fill="#263238"/>
<path d="M236.66 353.359H234.946L232.182 340.671V353.359H230.634V337.327H233.122L235.748 350.07L238.264 337.327H240.751V353.359H239.065V340.533L236.66 353.359Z" fill="#263238"/>
<path d="M332.33 353.359V339.04H329.4V337.409H337.029V339.04H334.099V353.359H332.33Z" fill="#263238"/>
<path d="M432.477 353.359H430.045L427.861 337.409H429.602L431.454 350.982L433.223 337.437H434.992L436.734 351.009L438.531 337.409H440.079L437.923 353.359H435.573L434.053 342.551L432.477 353.359Z" fill="#263238"/>
<path d="M532.155 353.359V339.04H529.225V337.409H536.854V339.04H533.924V353.359H532.155Z" fill="#263238"/>
<path d="M634.625 344.762V346.366H631.031V353.359H629.262V337.327H635.592V338.958H631.031V344.762H634.625Z" fill="#263238"/>
<path d="M733.113 341.169V341.584H731.427V341.086C731.427 339.649 730.874 338.792 729.603 338.792C728.331 338.792 727.778 339.649 727.778 341.058C727.778 344.624 733.113 344.956 733.113 349.351C733.113 351.756 731.952 353.332 729.52 353.332C727.087 353.332 725.954 351.756 725.954 349.351V348.439H727.613V349.434C727.613 350.871 728.193 351.701 729.492 351.701C730.791 351.701 731.344 350.871 731.344 349.434C731.344 345.868 726.009 345.536 726.009 341.141C726.009 338.681 727.17 337.161 729.548 337.161C731.925 337.161 733.113 338.736 733.113 341.169Z" fill="#263238"/>
<path d="M188.729 367.374H90.4883V465.614H188.729V367.374Z" stroke="#263238" stroke-width="2" stroke-linejoin="round"/>
<path d="M287.384 367.374H189.144V465.614H287.384V367.374Z" stroke="#263238" stroke-width="2" stroke-linejoin="round"/>
<path d="M386.039 367.374H287.798V465.614H386.039V367.374Z" stroke="#263238" stroke-width="2" stroke-linejoin="round"/>
<path d="M484.666 367.374H386.425V465.614H484.666V367.374Z" stroke="#263238" stroke-width="2" stroke-linejoin="round"/>
<path d="M583.321 367.374H485.081V465.614H583.321V367.374Z" stroke="#263238" stroke-width="2" stroke-linejoin="round"/>
<path d="M681.976 367.374H583.735V465.614H681.976V367.374Z" stroke="#263238" stroke-width="2" stroke-linejoin="round"/>
<path d="M780.63 367.374H682.39V465.614H780.63V367.374Z" stroke="#263238" stroke-width="2" stroke-linejoin="round"/>
<path d="M188.729 465.614H90.4883V563.854H188.729V465.614Z" stroke="#263238" stroke-width="2" stroke-linejoin="round"/>
<path d="M287.384 465.614H189.144V563.854H287.384V465.614Z" stroke="#263238" stroke-width="2" stroke-linejoin="round"/>
<path d="M386.039 465.614H287.798V563.854H386.039V465.614Z" stroke="#263238" stroke-width="2" stroke-linejoin="round"/>
<path d="M484.666 465.614H386.425V563.854H484.666V465.614Z" stroke="#263238" stroke-width="2" stroke-linejoin="round"/>
<path d="M583.321 465.614H485.081V563.854H583.321V465.614Z" stroke="#263238" stroke-width="2" stroke-linejoin="round"/>
<path d="M681.976 465.614H583.735V563.854H681.976V465.614Z" stroke="#263238" stroke-width="2" stroke-linejoin="round"/>
<path d="M780.63 465.614H682.39V563.854H780.63V465.614Z" stroke="#263238" stroke-width="2" stroke-linejoin="round"/>
<path d="M188.729 563.826H90.4883V662.067H188.729V563.826Z" stroke="#263238" stroke-width="2" stroke-linejoin="round"/>
<path d="M287.384 563.826H189.144V662.067H287.384V563.826Z" stroke="#263238" stroke-width="2" stroke-linejoin="round"/>
<path d="M386.039 563.826H287.798V662.067H386.039V563.826Z" stroke="#263238" stroke-width="2" stroke-linejoin="round"/>
<path d="M484.666 563.826H386.425V662.067H484.666V563.826Z" stroke="#263238" stroke-width="2" stroke-linejoin="round"/>
<path d="M583.321 563.826H485.081V662.067H583.321V563.826Z" stroke="#263238" stroke-width="2" stroke-linejoin="round"/>
<path d="M681.976 563.826H583.735V662.067H681.976V563.826Z" stroke="#263238" stroke-width="2" stroke-linejoin="round"/>
<path d="M780.63 563.826H682.39V662.067H780.63V563.826Z" stroke="#263238" stroke-width="2" stroke-linejoin="round"/>
<path d="M188.729 662.067H90.4883V760.307H188.729V662.067Z" stroke="#263238" stroke-width="2" stroke-linejoin="round"/>
<path d="M287.384 662.067H189.144V760.307H287.384V662.067Z" stroke="#263238" stroke-width="2" stroke-linejoin="round"/>
<path d="M386.039 662.067H287.798V760.307H386.039V662.067Z" stroke="#263238" stroke-width="2" stroke-linejoin="round"/>
<path d="M484.666 662.067H386.425V760.307H484.666V662.067Z" stroke="#263238" stroke-width="2" stroke-linejoin="round"/>
<path d="M583.321 662.067H485.081V760.307H583.321V662.067Z" stroke="#263238" stroke-width="2" stroke-linejoin="round"/>
<path d="M681.976 662.067H583.735V760.307H681.976V662.067Z" stroke="#263238" stroke-width="2" stroke-linejoin="round"/>
<path d="M780.63 662.067H682.39V760.307H780.63V662.067Z" stroke="#263238" stroke-width="2" stroke-linejoin="round"/>
<path d="M188.729 760.28H90.4883V858.52H188.729V760.28Z" stroke="#263238" stroke-width="2" stroke-linejoin="round"/>
<path d="M287.384 760.28H189.144V858.52H287.384V760.28Z" stroke="#263238" stroke-width="2" stroke-linejoin="round"/>
<path d="M386.039 760.28H287.798V858.52H386.039V760.28Z" stroke="#263238" stroke-width="2" stroke-linejoin="round"/>
<path d="M484.666 760.28H386.425V858.52H484.666V760.28Z" stroke="#263238" stroke-width="2" stroke-linejoin="round"/>
<path d="M583.321 760.28H485.081V858.52H583.321V760.28Z" stroke="#263238" stroke-width="2" stroke-linejoin="round"/>
<path d="M681.976 760.28H583.735V858.52H681.976V760.28Z" stroke="#263238" stroke-width="2" stroke-linejoin="round"/>
<path d="M780.63 760.28H682.39V858.52H780.63V760.28Z" stroke="#263238" stroke-width="2" stroke-linejoin="round"/>
<path d="M188.729 858.52H90.4883V956.76H188.729V858.52Z" stroke="#263238" stroke-width="2" stroke-linejoin="round"/>
<path d="M287.384 858.52H189.144V956.76H287.384V858.52Z" stroke="#263238" stroke-width="2" stroke-linejoin="round"/>
<path d="M386.039 858.52H287.798V956.76H386.039V858.52Z" stroke="#263238" stroke-width="2" stroke-linejoin="round"/>
<path d="M484.666 858.52H386.425V956.76H484.666V858.52Z" stroke="#263238" stroke-width="2" stroke-linejoin="round"/>
<path d="M583.321 858.52H485.081V956.76H583.321V858.52Z" stroke="#263238" stroke-width="2" stroke-linejoin="round"/>
<path d="M681.976 858.52H583.735V956.76H681.976V858.52Z" stroke="#263238" stroke-width="2" stroke-linejoin="round"/>
<path d="M780.63 858.52H682.39V956.76H780.63V858.52Z" stroke="#263238" stroke-width="2" stroke-linejoin="round"/>
<path d="M526.405 275.463H467.389V302.442H526.405V275.463Z" fill="#CCCCCC"/>
<path d="M590.48 275.463H531.464V302.442H590.48V275.463Z" fill="#CCCCCC"/>
<path d="M654.555 275.463H595.539V302.442H654.555V275.463Z" fill="#CCCCCC"/>
<path d="M718.629 275.463H659.613V302.442H718.629V275.463Z" fill="#CCCCCC"/>
<path d="M782.731 275.463H723.715V302.442H782.731V275.463Z" fill="#CCCCCC"/>
<path d="M129.547 275.463H94.6899V302.442H129.547V275.463Z" fill="#CCCCCC"/>
<path d="M169.324 275.463H134.467V302.442H169.324V275.463Z" fill="#CCCCCC"/>
<path d="M160.395 288.455L143.644 298.13V278.781L160.395 288.455Z" fill="#263238"/>
<path d="M102.568 288.455L119.319 298.13V278.781L102.568 288.455Z" fill="#263238"/>
<path d="M189.696 283.922V284.447H187.678V283.812C187.678 282.098 187.015 281.047 185.467 281.047C183.919 281.047 183.283 282.07 183.283 283.812C183.283 288.124 189.724 288.538 189.724 293.929C189.724 296.831 188.314 298.738 185.384 298.738C182.454 298.738 181.1 296.831 181.1 293.929V292.851H183.228V294.039C183.228 295.781 183.947 296.803 185.467 296.803C186.987 296.803 187.734 295.808 187.734 294.039C187.734 289.782 181.321 289.368 181.321 283.95C181.321 280.992 182.675 279.168 185.55 279.168C188.425 279.168 189.696 281.02 189.696 283.922Z" fill="#263238"/>
<path d="M198.403 287.82V289.755H193.732V296.582H199.481V298.517H191.521V279.333H199.426V281.268H193.732V287.82H198.403Z" fill="#263238"/>
<path d="M205.646 279.333C208.659 279.333 209.958 281.103 209.958 284.005V286.327C210.058 286.944 210.013 287.575 209.825 288.171C209.638 288.767 209.314 289.311 208.879 289.76C208.444 290.208 207.91 290.549 207.32 290.754C206.73 290.96 206.1 291.025 205.48 290.943H203.573V298.517H201.444V279.333H205.646ZM205.48 289.036C207.056 289.036 207.83 288.29 207.83 286.465V283.894C207.83 282.153 207.194 281.13 205.646 281.13H203.573V288.898L205.48 289.036Z" fill="#263238"/>
<path d="M214.381 298.517V281.268H210.87V279.333H220.047V281.268H216.399V298.517H214.381Z" fill="#263238"/>
<path d="M228.312 287.82V289.755H223.613V296.582H229.363V298.517H221.485V279.333H229.363V281.268H223.613V287.82H228.312Z" fill="#263238"/>
<path d="M238.512 298.49H236.439L233.26 283.231V298.517H231.408V279.333H234.394L237.545 294.647L240.585 279.333H243.571V298.517H241.553V283.093L238.512 298.49Z" fill="#263238"/>
<path d="M249.984 279.333C252.969 279.333 254.158 280.743 254.158 283.59V284.475C254.158 286.52 253.577 287.764 251.891 288.29C253.771 288.815 254.489 290.28 254.489 292.408V294.011C254.579 294.614 254.528 295.23 254.341 295.81C254.154 296.389 253.835 296.918 253.409 297.354C252.984 297.791 252.463 298.123 251.888 298.324C251.313 298.526 250.699 298.592 250.094 298.517H245.671V279.333H249.984ZM249.458 287.46C251.172 287.46 252.029 286.935 252.029 284.917V283.784C252.029 282.098 251.476 281.268 249.928 281.268H247.827V287.46H249.458ZM250.094 296.582C251.642 296.582 252.361 295.753 252.361 293.956V292.27C252.361 290.142 251.504 289.506 249.597 289.506H247.745V296.665L250.094 296.582Z" fill="#263238"/>
<path d="M263.39 287.82V289.755H258.691V296.582H264.441V298.517H256.562V279.333H264.441V281.268H258.691V287.82H263.39Z" fill="#263238"/>
<path d="M270.55 279.333C273.59 279.333 274.834 280.854 274.834 283.729V285.277C274.965 286.11 274.798 286.962 274.363 287.685C273.929 288.407 273.254 288.954 272.457 289.229C274.198 289.755 274.862 291.164 274.862 293.238V296.223C274.8 297.008 274.933 297.796 275.249 298.517H273.093C272.79 297.783 272.667 296.987 272.733 296.195V293.182C272.733 290.999 271.711 290.418 269.969 290.418H268.449V298.711H266.32V279.527L270.55 279.333ZM270.024 288.372C271.711 288.372 272.789 287.82 272.789 285.746V283.894C272.789 282.181 272.153 281.13 270.577 281.13H268.476V288.234L270.024 288.372Z" fill="#263238"/>
<path d="M294.792 283.977C294.792 289.782 288.296 291.855 288.268 296.278V296.582H294.57V298.517H286.278V296.858C286.278 290.667 292.774 289.478 292.774 284.06C292.774 282.097 292.11 281.047 290.535 281.047C288.959 281.047 288.296 282.18 288.296 283.811V285.525H286.278V283.95C286.278 281.019 287.632 279.084 290.59 279.084C293.548 279.084 294.792 281.047 294.792 283.977Z" fill="#263238"/>
<path d="M296.561 283.95C296.561 281.02 297.998 279.14 300.956 279.14C303.913 279.14 305.351 281.02 305.351 283.95V293.846C305.351 296.776 303.913 298.711 300.956 298.711C297.998 298.711 296.561 296.776 296.561 293.846V283.95ZM298.661 293.984C298.661 295.725 299.408 296.748 300.956 296.748C302.504 296.748 303.222 295.725 303.222 293.984V283.839C303.222 282.098 302.504 281.075 300.956 281.075C299.408 281.075 298.661 282.125 298.661 283.839V293.984Z" fill="#263238"/>
<path d="M316.049 283.977C316.049 289.782 309.553 291.855 309.525 296.278V296.582H315.91V298.517H307.618V296.858C307.618 290.667 314.114 289.478 314.114 284.06C314.114 282.097 313.45 281.047 311.847 281.047C310.244 281.047 309.608 282.18 309.608 283.811V285.525H307.618V283.95C307.618 281.019 308.944 279.084 311.902 279.084C314.86 279.084 316.049 281.047 316.049 283.977Z" fill="#263238"/>
<path d="M321.936 282.816C321.102 283.327 320.149 283.612 319.172 283.646V281.877C319.928 281.891 320.666 281.647 321.265 281.184C321.863 280.722 322.285 280.069 322.461 279.333H323.926V298.517H321.826L321.936 282.816Z" fill="#263238"/>
<path d="M405.919 227.343H90.3062V250.204H405.919V227.343Z" fill="#F0F0F0" stroke="#263238" stroke-width="2" stroke-linejoin="round"/>
<path d="M758.268 234.581H786.104" stroke="#263238" stroke-width="2" stroke-linejoin="round"/>
<path d="M758.268 242.155H786.104" stroke="#263238" stroke-width="2" stroke-linejoin="round"/>
<path d="M758.268 249.756H786.104" stroke="#263238" stroke-width="2" stroke-linejoin="round"/>
<path d="M644.909 601.779C644.313 606.372 643.389 610.917 642.145 615.379C641.012 617.645 633.631 619.359 633.631 622.179C634.209 625.028 635.367 627.728 637.031 630.112L638.745 648.273C638.745 648.273 637.584 650.539 642.145 651.673C646.706 652.806 655.745 648.909 659.698 634.673C663.651 620.437 658.012 602.912 656.934 600.645C655.856 598.379 650.023 592.27 644.909 601.779Z" fill="white" stroke="#263238" stroke-width="2" stroke-linejoin="round"/>
<path d="M583.129 637.492C583.129 637.492 552.502 581.931 552.502 578.532C552.502 575.132 555.902 564.987 556.233 562.858C556.565 560.73 555.542 554.4 556.233 550.862C556.924 547.323 556.952 543.454 554.824 546.992C553.007 549.706 552.044 552.903 552.059 556.169C552.017 557.168 551.777 558.148 551.355 559.054C550.933 559.96 550.336 560.774 549.599 561.449L545.729 554.759L540.781 536.405C540.781 536.405 537.603 534.995 537.603 537.455C537.603 539.915 540.367 554.041 540.367 554.041L532.268 536.045C532.268 536.045 529.503 535.354 529.503 538.174C529.503 540.993 535.502 556.86 535.502 556.86L525.274 544.863C524.541 545.345 524.022 546.091 523.826 546.946C523.631 547.802 523.773 548.699 524.224 549.452C525.634 552.631 530.941 561.449 530.941 561.449C528.64 560.187 526.505 558.646 524.583 556.86C524.224 555.81 522.455 555.091 522.814 557.579C523.173 560.067 532.351 568.497 532.351 568.497C534.087 571.477 536.216 574.211 538.681 576.624L542.219 579.803L564.084 655.653C564.084 655.653 574.007 635.585 583.129 637.492Z" fill="white" stroke="#263238" stroke-width="2" stroke-linejoin="round"/>
<path d="M729.384 795.937C729.384 795.937 745.969 854.566 746.605 856.557C747.241 858.547 741.076 864.849 740.662 867.807C740.113 871.332 738.873 874.714 737.013 877.758C735.686 879.417 729.052 880.744 731.485 883.287C733.917 885.83 742.541 880.301 742.541 880.301V890.916C742.541 890.916 739.224 902.83 742.541 903.493C745.858 904.157 752.797 897.522 754.787 891.552C756.777 885.581 756.114 870.019 757.109 860.758C758.104 851.498 753.239 785.765 753.239 785.765L729.384 795.937Z" fill="white" stroke="#263238" stroke-width="2" stroke-linejoin="round"/>
<path d="M750.254 868.139C749.44 869.214 748.87 870.453 748.584 871.771C748.298 873.088 748.301 874.452 748.595 875.768C749.259 881.075 749.591 888.373 749.591 888.373C749.591 888.373 739.999 898.628 743.647 898.96C747.296 899.292 754.898 891.994 755.561 889.368C756.225 886.742 756.556 870.019 756.556 866.176" fill="white"/>
<path d="M750.254 868.139C749.44 869.214 748.87 870.453 748.584 871.771C748.298 873.088 748.301 874.452 748.595 875.768C749.259 881.075 749.591 888.373 749.591 888.373C749.591 888.373 739.999 898.628 743.647 898.96C747.296 899.292 754.898 891.994 755.561 889.368C756.225 886.742 756.556 870.019 756.556 866.176" stroke="#263238" stroke-width="2" stroke-linejoin="round"/>
<path d="M644.357 673.787C644.357 673.787 614.31 660.74 608.643 656.759L589.929 643.74C589.44 642.782 588.712 641.967 587.817 641.371C586.921 640.776 585.888 640.421 584.815 640.34C580.863 639.759 574.615 648.273 571.796 655.626C570.152 659.79 569.218 664.2 569.032 668.673C569.032 668.673 617.793 710.136 621.745 712.9C625.698 715.665 632.526 725.367 632.526 725.367C632.526 725.367 640.459 789.994 640.459 791.708C640.459 793.422 650.106 803.042 669.926 804.175C689.745 805.308 709.62 797.375 712.467 792.289C715.314 787.202 717 767.411 717.553 765.061C717.747 762.22 717.561 759.367 717 756.575L724.934 784.908L747.6 778.689C747.6 778.689 735.686 721.995 734 712.928C732.314 703.861 708.487 684.014 689.22 676.081C669.953 668.148 644.357 673.787 644.357 673.787Z" fill="white" stroke="#263238" stroke-width="2" stroke-linejoin="round"/>
<path d="M589.929 643.74C589.929 643.74 587.165 639.206 581.415 650.54C577.805 657.98 574.961 665.77 572.929 673.787C572.929 673.787 564.415 671.023 562.149 664.693C559.882 658.362 563.835 644.293 571.215 637.05C578.596 629.808 586.529 631.245 589.929 643.74Z" fill="white" stroke="#263238" stroke-width="2" stroke-linejoin="round"/>
<path d="M670.423 576.265C670.423 576.265 655.69 569.465 649.443 571.732C643.196 573.998 639.243 589.312 640.957 597.826C642.671 606.34 650.576 610.845 652.29 619.94C654.004 629.034 644.357 649.987 638.69 660.187C633.024 670.387 639.243 680.034 647.757 686.834C656.271 693.634 662.49 701.567 658.51 711.712C654.529 721.856 644.357 732.664 649.443 749.692C654.529 766.72 682.337 783.692 707.823 775.178C733.309 766.664 733.917 744.578 732.701 735.512C731.485 726.445 745.748 723.045 746.882 700.351C748.015 677.656 744.117 665.77 736.654 659.551C729.191 653.331 719.101 655.017 717.968 638.018C716.835 621.018 720.732 595.476 704.921 580.743C689.11 566.01 670.423 576.265 670.423 576.265Z" fill="#263238" stroke="#263238" stroke-width="2" stroke-linejoin="round"/>
<path d="M720.511 786.18C720.511 786.18 727.67 798.702 730.628 799.282C733.586 799.863 752.106 792.731 753.295 790.989C754.483 789.248 753.903 778.468 752.687 774.902C751.47 771.336 740.773 775.482 732.425 779.076C724.077 782.669 718.714 780.817 720.511 786.18Z" fill="white" stroke="#263238" stroke-width="2" stroke-linejoin="round"/>
<path d="M621.994 952.309C621.994 952.309 627.743 1031.06 630.148 1052.18C632.553 1073.3 635.428 1117.91 635.428 1117.91C635.428 1117.91 630.646 1133.28 628.241 1136.63C625.836 1139.97 621.524 1144.31 621.994 1148.15C622.464 1152 645.517 1149.59 645.517 1149.59C645.517 1149.59 649.83 1150.09 650.797 1147.68C651.765 1145.28 652.732 1107.82 652.732 1103.98C652.732 1100.14 661.356 960.491 661.356 960.491L621.994 952.309Z" fill="white" stroke="#263238" stroke-width="2" stroke-linejoin="round"/>
<path d="M653.203 1105.92C653.203 1105.92 643.611 1107.35 640.708 1113.6C637.806 1119.85 631.586 1127.04 631.116 1129.44C630.646 1131.85 623.902 1140.97 623.902 1140.97C623.902 1140.97 619.59 1145.28 621.995 1148.15C624.399 1151.03 651.295 1150.56 651.295 1150.56C651.295 1150.56 654.64 1133.75 656.575 1129.91C658.822 1123.59 659.149 1116.74 657.515 1110.23C655.607 1105.42 653.203 1105.92 653.203 1105.92Z" fill="#263238" stroke="#263238" stroke-width="2" stroke-linejoin="round"/>
<path d="M644.55 1128.94L635.428 1150.56H651.267L644.55 1128.94Z" fill="white" stroke="#263238" stroke-width="2" stroke-linejoin="round"/>
<path d="M644.55 1128.97L648.89 1150.56H654.17L658.012 1122.72C658.012 1122.72 647.978 1114.07 644.55 1128.97Z" fill="#263238" stroke="#263238" stroke-width="2" stroke-linejoin="round"/>
<path d="M682.503 958.086C682.503 958.086 694.97 1013.37 704.091 1043.06C713.213 1072.75 726.205 1117 727.145 1125.65C728.085 1134.3 728.113 1144.37 730.987 1146.3C733.862 1148.24 755.478 1149.07 755.865 1145.33C756.252 1141.6 748.651 1123.72 745.776 1117.47C743.468 1111.85 741.547 1106.08 740.026 1100.19L722.75 953.276L682.503 958.086Z" fill="white" stroke="#263238" stroke-width="2" stroke-linejoin="round"/>
<path d="M741.298 1104.45C739.833 1104.15 731.513 1102.52 727.145 1106.44C725.742 1107.73 724.614 1109.29 723.828 1111.03C725.198 1115.84 726.305 1120.72 727.145 1125.65C728.113 1134.28 728.113 1144.37 730.987 1146.3C733.862 1148.24 755.478 1149.07 755.865 1145.33C756.252 1141.6 748.651 1123.72 745.776 1117.47C743.998 1113.23 742.502 1108.89 741.298 1104.45Z" fill="#263238" stroke="#263238" stroke-width="2" stroke-linejoin="round"/>
<path d="M755.948 1145.33C753.543 1140.99 748.263 1125.65 744.421 1122.75C740.579 1119.85 733.862 1121.31 733.862 1121.31L731.098 1125.16C728.333 1129 731.098 1146.3 731.098 1146.3C733.862 1148.21 755.478 1149.18 755.948 1145.33Z" fill="white" stroke="#263238" stroke-width="2" stroke-linejoin="round"/>
<path d="M744.421 1122.75C743.686 1121.97 742.793 1121.35 741.802 1120.94C740.811 1120.53 739.744 1120.34 738.672 1120.37C734.83 1120.37 730.987 1125.16 730.987 1125.16L737.704 1150.03H742.514L744.421 1122.75Z" fill="#263238" stroke="#263238" stroke-width="2" stroke-linejoin="round"/>
<path d="M713.462 789.414C713.201 790.371 712.84 791.297 712.384 792.178C709.62 797.264 689.69 805.198 669.843 804.064C649.996 802.931 640.376 793.311 640.376 791.598C640.376 791.349 640.183 789.663 639.879 786.981C635.456 796.186 621.082 827.45 615.581 857.027C609.03 892.215 613.784 953.609 613.784 953.609C633.869 963.72 656.367 968.055 678.771 966.13C716.917 963.145 735.41 953.028 735.41 953.028C735.41 953.028 740.164 871.456 731.844 841.05C727.066 823.387 720.92 806.123 713.462 789.414Z" fill="#263238" stroke="#263238" stroke-width="2" stroke-linejoin="round"/>
<path d="M256.47 814.144L253.375 1101.84L224.682 1101.07L205.554 861.91L197.786 865.006L182.002 934.332L141.7 1101.84L116.104 1099.52L123.843 1018.86L146.814 806.404L148.666 789.321L254.149 790.869L255.365 803.087L256.47 814.144Z" fill="#263238" stroke="#263238" stroke-width="2" stroke-linecap="round" stroke-linejoin="round"/>
<path d="M255.364 803.087L146.813 806.404L148.665 789.321L254.148 790.869L255.364 803.087Z" fill="#737373" stroke="#263238" stroke-width="2" stroke-linecap="round" stroke-linejoin="round"/>
<path d="M158.783 808.118V794.104L165.776 794.518L166.191 807.704" fill="#263238"/>
<path d="M158.783 808.118V794.104L165.776 794.518L166.191 807.704" stroke="#263238" stroke-width="2" stroke-linecap="round" stroke-linejoin="round"/>
<path d="M233.804 806.874V792.859L240.797 793.274L241.212 806.459" fill="#263238"/>
<path d="M233.804 806.874V792.859L240.797 793.274L241.212 806.459" stroke="#263238" stroke-width="2" stroke-linecap="round" stroke-linejoin="round"/>
<path d="M214.012 795.762H194.22V805.243H214.012V795.762Z" fill="white" stroke="#263238" stroke-width="2" stroke-linecap="round" stroke-linejoin="round"/>
<path d="M254.148 722.233L277.727 752.087L305.729 707.417C290.139 690.666 277.506 675.739 275.018 672.311C268.799 663.77 257.521 648.954 252.904 646.604C248.288 644.255 202.181 636.542 202.181 636.542L166.246 642.347L125.142 656.694L89.2075 742.384L133.988 768.202L138.134 722.62L143.663 774.588C143.663 774.588 140.539 790.095 143.663 793.937C144.419 795.015 145.397 795.918 146.532 796.586C147.667 797.254 148.932 797.67 150.241 797.807L211.054 795.872H252.932C254.093 795.872 258.461 791.228 258.737 787.358C259.013 783.488 252.131 767.566 252.131 767.566L254.148 722.233Z" fill="white" stroke="#263238" stroke-width="2" stroke-linecap="round" stroke-linejoin="round"/>
<path d="M256.692 683.175L254.148 722.234L263.436 677.26" stroke="#263238" stroke-width="2" stroke-linecap="round" stroke-linejoin="round"/>
<path d="M257.631 669.105L257.272 674.689" stroke="#263238" stroke-width="2" stroke-linecap="round" stroke-linejoin="round"/>
<path d="M126.055 694.508L123.069 687.598" stroke="#263238" stroke-width="2" stroke-linecap="round" stroke-linejoin="round"/>
<path d="M128.764 682.539L138.19 722.62L127.907 698.821" stroke="#263238" stroke-width="2" stroke-linecap="round" stroke-linejoin="round"/>
<path d="M125.584 669.022L127.05 675.297" stroke="#263238" stroke-width="2" stroke-linecap="round" stroke-linejoin="round"/>
<path d="M218.103 758.721L214.675 764.775L206.161 779.812L204.89 781.996L204.033 780.807L198.173 772.515L189.935 760.96L189.466 760.297L190.157 749.848L191.207 733.954L191.953 722.565L193.004 706.671L193.75 695.31L194.773 679.388L195.132 674.081L191.76 669.769L186.01 662.416L196.072 651.718L208.981 658.021L205.857 663.162L199.859 673.113L200.605 676.652L203.591 690.694L205.719 700.673L208.732 714.715L210.861 724.721L213.846 738.736L215.974 748.742L218.103 758.721Z" fill="#4E94E4" stroke="#263238" stroke-width="2" stroke-miterlimit="10"/>
<path d="M205.858 663.162L191.76 669.713L195.132 674.025L194.801 679.388L200.633 676.624L199.887 673.086L205.858 663.162ZM203.591 690.804L193.75 695.42L193.004 706.754L205.719 700.783L203.591 690.804ZM208.732 714.825L192.037 722.565L191.29 733.954L210.944 724.721L208.732 714.825ZM213.846 738.846L190.157 749.903L189.466 760.352L189.936 761.015L215.975 748.798L213.846 738.846ZM198.173 772.625L204.033 780.918L206.162 779.923L214.675 764.885L198.173 772.625Z" fill="#263238" stroke="#263238" stroke-width="2" stroke-linecap="round" stroke-linejoin="round"/>
<path d="M178.215 631.014L171.084 632.12L162.1 643.757L178.685 670.764L190.323 661.78L197.067 665.512L204.945 659.513L216.196 663.273C216.196 663.273 213.183 640.772 212.077 637.372C210.971 633.972 201.186 629.494 201.186 629.494L178.215 631.014Z" fill="white" stroke="#263238" stroke-width="2" stroke-linecap="round" stroke-linejoin="round"/>
<path d="M234.799 606.827C235.745 605.633 236.441 604.261 236.845 602.792C235.988 601.05 228.718 589.579 228.718 589.579C229.936 586.517 230.709 583.296 231.012 580.014C230.496 576.058 229.368 572.207 227.667 568.598C227.667 568.598 213.376 557.928 199.334 562.572C185.292 567.216 168.928 579.655 169.646 596.71C170.365 613.765 178.962 618.824 178.962 618.824L173.986 632.286L187.807 655.478L197.178 665.595L204.31 652.105L215.367 631.069C215.367 631.069 229.354 631.235 230.238 629.936L231.261 611.195C231.261 611.195 233.5 608.099 234.799 606.827Z" fill="white" stroke="#263238" stroke-width="2" stroke-linecap="round" stroke-linejoin="round"/>
<path d="M196.238 600.11C196.238 600.11 201.49 600.608 201.96 597.982C202.43 595.356 201.628 588.805 202.54 586.648C203.453 584.492 210.833 582.806 211.801 578.881C212.768 574.956 208.428 569.676 208.428 569.676C208.428 569.676 222.249 573.353 230.708 570.395C239.166 567.437 231.758 554.666 218.711 550.133C205.664 545.6 174.18 548.281 163.427 559.504C152.674 570.727 155.687 585.626 159.474 595.715C163.261 605.804 171.858 620.344 179.266 621.312C186.674 622.279 195.188 607.076 195.188 607.076C195.188 607.076 193.584 602.266 196.238 600.11Z" fill="#263238" stroke="#263238" stroke-width="2" stroke-linecap="round" stroke-linejoin="round"/>
<path d="M199.251 604.948C199.251 604.948 196.487 592.233 190.655 593.477C184.822 594.72 183.025 608.68 186.895 613.959C190.765 619.239 198.698 612.798 198.698 612.798" fill="white"/>
<path d="M199.251 604.948C199.251 604.948 196.487 592.233 190.655 593.477C184.822 594.72 183.025 608.68 186.895 613.959C190.765 619.239 198.698 612.798 198.698 612.798" stroke="#263238" stroke-width="2" stroke-linecap="round" stroke-linejoin="round"/>
<path d="M228.801 582.171C228.801 582.171 224.544 577.554 221.78 585.128" stroke="#263238" stroke-width="2" stroke-linecap="round" stroke-linejoin="round"/>
<path d="M227.391 591.32C227.391 593.007 226.755 594.361 226.036 594.361C225.317 594.361 224.737 592.979 224.765 591.293C224.792 589.607 225.373 588.224 226.119 588.252C226.865 588.28 227.391 589.551 227.391 591.32Z" fill="#263238"/>
<path d="M228.441 616.142C226.976 615.934 225.573 615.408 224.332 614.601C223.09 613.794 222.04 612.726 221.254 611.471" stroke="#263238" stroke-width="2" stroke-linecap="round" stroke-linejoin="round"/>
<path d="M117.126 1097.34L107.949 1114.39L90.8938 1133.38C90.8938 1133.38 87.632 1137.97 88.9312 1139.96C90.2304 1141.95 139.406 1139.96 139.406 1139.96L142.695 1137.97L143.994 1132.08L142.474 1115.14L141.7 1101.84L117.126 1097.34Z" fill="white" stroke="#263238" stroke-width="2" stroke-linecap="round" stroke-linejoin="round"/>
<path d="M89.2077 1136.4C88.8984 1136.93 88.7131 1137.53 88.6652 1138.15C88.6174 1138.76 88.7083 1139.38 88.9313 1139.96C90.2581 1141.92 139.406 1139.96 139.406 1139.96L142.695 1137.97L143.58 1133.94L89.2077 1136.4Z" fill="white" stroke="#263238" stroke-width="2" stroke-linecap="round" stroke-linejoin="round"/>
<path d="M253.374 1101.84L259.069 1114.39L276.096 1133.38C276.096 1133.38 279.386 1137.97 278.059 1139.96C276.732 1141.95 227.584 1139.96 227.584 1139.96L224.322 1137.97L222.996 1132.08L224.322 1105.22L225.318 1101.84H253.374Z" fill="white" stroke="#263238" stroke-width="2" stroke-linecap="round" stroke-linejoin="round"/>
<path d="M258.345 1017.36C258.945 1016.51 258.345 1014.98 257.664 1013.92L218.584 1012.25L219.444 1015.97L221.806 1017.36C221.806 1017.36 257.404 1018.72 258.345 1017.36Z" fill="white" stroke="#263238" stroke-width="2" stroke-linecap="round" stroke-linejoin="round"/>
<path d="M387.821 977.003C441.306 923.518 441.306 836.802 387.821 783.317C334.336 729.832 247.62 729.832 194.135 783.317C140.65 836.802 140.65 923.518 194.135 977.003C247.62 1030.49 334.336 1030.49 387.821 977.003Z" fill="#4E94E4" stroke="#263238" stroke-width="2" stroke-miterlimit="10"/>
<path d="M290.978 1005.26C359.719 1005.26 415.445 949.252 415.445 880.16C415.445 811.068 359.719 755.058 290.978 755.058C222.237 755.058 166.511 811.068 166.511 880.16C166.511 949.252 222.237 1005.26 290.978 1005.26Z" fill="white" stroke="#263238" stroke-width="2" stroke-linecap="round" stroke-linejoin="round"/>
<path d="M300.504 880.16C300.504 878.276 299.945 876.435 298.898 874.868C297.852 873.302 296.364 872.081 294.623 871.36C292.883 870.639 290.968 870.45 289.12 870.818C287.272 871.185 285.575 872.093 284.243 873.425C282.91 874.757 282.003 876.454 281.636 878.302C281.268 880.15 281.457 882.065 282.178 883.806C282.899 885.546 284.12 887.034 285.686 888.08C287.253 889.127 289.094 889.686 290.978 889.686C293.505 889.686 295.927 888.682 297.714 886.896C299.5 885.109 300.504 882.687 300.504 880.16Z" fill="#263238" stroke="#263238" stroke-width="2" stroke-linecap="round" stroke-linejoin="round"/>
<path d="M285.515 880.16L255.416 928.476L260.826 931.598L294.788 884.043L285.515 880.16Z" fill="#263238" stroke="#263238" stroke-width="2" stroke-linecap="round" stroke-linejoin="round"/>
<path d="M290.978 881.215L353.644 973.511L355.117 972.388L294.064 878.89L290.978 881.215Z" fill="#263238" stroke="#263238" stroke-width="2" stroke-linecap="round" stroke-linejoin="round"/>
<path d="M96.3943 746.172L91.8057 757.643L155.687 850.383L169.591 837.971L134.043 768.202L124.396 762.702L96.3943 746.172Z" fill="white" stroke="#263238" stroke-width="2" stroke-linecap="round" stroke-linejoin="round"/>
<path d="M144.823 873.077C144.823 873.077 144.188 877.223 143.911 878.606C143.635 879.988 151.706 887.064 151.706 887.064C151.706 887.064 154.719 886.428 153.669 885.627C151.806 882.996 150.152 880.223 148.721 877.334L144.823 873.077Z" fill="white" stroke="#263238" stroke-width="2" stroke-linecap="round" stroke-linejoin="round"/>
<path d="M146.62 863.54C145.434 865.837 144.56 868.282 144.022 870.81C144.022 873.215 150.38 879.103 151.983 880.209C153.586 881.314 156.295 883.913 157.29 882.586C157.771 881.355 157.931 880.022 157.757 878.712C157.583 877.402 157.08 876.158 156.295 875.095C153.852 871.857 151.706 868.407 149.882 864.784C149.882 864.784 147.256 861.08 146.62 863.54Z" fill="white" stroke="#263238" stroke-width="2" stroke-linecap="round" stroke-linejoin="round"/>
<path d="M149.965 854.916L145.902 861.882L151.707 872.939C151.707 872.939 156.323 878.992 158.59 878.218C160.856 877.444 162.957 876.919 161.354 874.487C159.751 872.054 156.461 866.581 156.461 866.581L156.793 858.427L149.965 854.916Z" fill="white" stroke="#263238" stroke-width="2" stroke-linecap="round" stroke-linejoin="round"/>
<path d="M156.489 841.261L149.302 853.423L154.25 861.716C154.25 861.716 162.542 867.521 164.892 866.47C165.387 866.253 165.818 865.913 166.144 865.481C166.469 865.049 166.678 864.541 166.75 864.005C166.822 863.469 166.755 862.924 166.556 862.421C166.356 861.919 166.031 861.476 165.611 861.135L160.303 857.1C160.303 857.1 165.5 848.061 168.209 843.417" fill="white"/>
<path d="M156.489 841.261L149.302 853.423L154.25 861.716C154.25 861.716 162.542 867.521 164.892 866.47C165.387 866.253 165.818 865.913 166.144 865.481C166.469 865.049 166.678 864.541 166.75 864.005C166.822 863.469 166.755 862.924 166.556 862.421C166.356 861.919 166.031 861.476 165.611 861.135L160.303 857.1C160.303 857.1 165.5 848.061 168.209 843.417" stroke="#263238" stroke-width="2" stroke-linecap="round" stroke-linejoin="round"/>
<path d="M161.63 840.57C161.63 840.57 160.469 844.302 160.027 846.485C159.584 848.669 157.788 852.76 160.027 854.778C162.266 856.796 166.08 858.98 167.49 857.1C168.9 855.22 165.417 848.807 165.417 848.807C167.196 845.661 168.703 842.369 169.923 838.967C170.144 837.032 167.601 835.954 167.601 835.954" fill="white"/>
<path d="M161.63 840.57C161.63 840.57 160.469 844.302 160.027 846.485C159.584 848.669 157.788 852.76 160.027 854.778C162.266 856.796 166.08 858.98 167.49 857.1C168.9 855.22 165.417 848.807 165.417 848.807C167.196 845.661 168.703 842.369 169.923 838.967C170.144 837.032 167.601 835.954 167.601 835.954" stroke="#263238" stroke-width="2" stroke-linecap="round" stroke-linejoin="round"/>
<path d="M304.706 709.408L307.94 712.2L357.641 757.09L340.973 758.611L292.765 734.479L288.204 736.165L304.706 709.408Z" fill="white" stroke="#263238" stroke-width="2" stroke-linecap="round" stroke-linejoin="round"/>
<path d="M381.994 759.993C381.994 759.993 385.642 761.983 386.997 762.757C388.351 763.531 388.987 774.118 388.987 774.118C388.987 774.118 386.665 776.108 386.665 774.781C385.676 771.687 384.447 768.674 382.989 765.77L381.994 759.993Z" fill="white" stroke="#263238" stroke-width="2" stroke-linecap="round" stroke-linejoin="round"/>
<path d="M373.314 755.653C375.85 756.09 378.314 756.871 380.639 757.975C382.657 759.302 383.403 767.981 383.403 769.999C383.403 772.017 383.735 775.666 382.076 775.666C380.418 775.666 376.714 772.321 376.714 770.331C375.611 766.421 374.159 762.619 372.374 758.97C372.374 758.97 370.964 754.63 373.314 755.653Z" fill="white" stroke="#263238" stroke-width="2" stroke-linecap="round" stroke-linejoin="round"/>
<path d="M364.303 752.971L372.291 753.967L377.654 765.327C377.654 765.327 379.644 772.653 377.654 774.007C375.664 775.362 373.977 776.771 372.982 774.007L369.638 765.327L362.948 760.656L364.303 752.971Z" fill="white" stroke="#263238" stroke-width="2" stroke-linecap="round" stroke-linejoin="round"/>
<path d="M349.597 749.875L363.611 751.562L367.288 760.573C367.288 760.573 366.956 770.579 364.524 771.906C364.045 772.18 363.502 772.321 362.951 772.317C362.4 772.313 361.859 772.163 361.385 771.882C360.91 771.601 360.518 771.2 360.249 770.718C359.98 770.237 359.843 769.693 359.852 769.142V762.453L344.151 760.462" fill="white"/>
<path d="M349.597 749.875L363.611 751.562L367.288 760.573C367.288 760.573 366.956 770.579 364.524 771.906C364.045 772.18 363.502 772.321 362.951 772.317C362.4 772.313 361.859 772.163 361.385 771.882C360.91 771.601 360.518 771.2 360.249 770.718C359.98 770.237 359.843 769.693 359.852 769.142V762.453L344.151 760.462" stroke="#263238" stroke-width="2" stroke-linecap="round" stroke-linejoin="round"/>
<path d="M345.948 753.635C345.948 753.635 349.597 754.99 351.476 755.985C353.356 756.98 357.806 757.975 358.138 760.988C358.47 764.001 357.806 768.313 355.374 768.313C352.941 768.313 350.011 761.652 350.011 761.652C346.392 761.189 342.821 760.402 339.341 759.302C337.683 758.307 338.346 755.653 338.346 755.653" fill="white"/>
<path d="M345.948 753.635C345.948 753.635 349.597 754.99 351.476 755.985C353.356 756.98 357.806 757.975 358.138 760.988C358.47 764.001 357.806 768.313 355.374 768.313C352.941 768.313 350.011 761.652 350.011 761.652C346.392 761.189 342.821 760.402 339.341 759.302C337.683 758.307 338.346 755.653 338.346 755.653" stroke="#263238" stroke-width="2" stroke-linecap="round" stroke-linejoin="round"/>
<path d="M301.416 718.751C299.994 722.26 299.677 726.12 300.506 729.815C301.336 733.509 303.274 736.863 306.06 739.427" stroke="#263238" stroke-width="2" stroke-linecap="round" stroke-linejoin="round"/>
</svg>
