<svg width="767" height="478" viewBox="0 0 767 478" fill="none" xmlns="http://www.w3.org/2000/svg">
<path d="M82.7142 114.513L85.5889 149.509C85.5889 149.509 60.6436 145.421 54.032 158.655C47.4204 171.889 47.4098 206.48 62.8581 224.867C73.984 238.122 85.8763 232.66 91.6575 228.572L94.6599 266.804C94.6599 281.081 122.086 307.379 155.921 307.379C189.756 307.379 217.182 281.081 217.182 266.804L229.117 114.556L82.7142 114.513ZM71.6843 209.439C62.1022 201.348 67.2659 166.033 71.6843 161.625C74.9528 158.346 82.6823 160.741 86.4512 162.2L90.4012 212.559C85.4717 213.783 77.6997 214.518 71.6843 209.439Z" fill="#263238"/>
<path d="M155.921 307.911C123.001 307.911 94.1701 282.295 94.1701 266.804L91.2423 229.541C84.8542 233.799 73.3451 238.154 62.4962 225.229C47.3778 207.214 46.6751 172.293 53.6061 158.431C59.7919 146.07 80.915 148.317 85.0565 148.849L82.1926 113.949H229.692V114.524L217.757 266.772C217.715 282.295 188.83 307.911 155.921 307.911ZM92.1153 227.592L95.1816 266.761C95.1816 280.155 121.447 306.846 155.921 306.846C190.395 306.846 216.607 280.155 216.607 266.804L228.5 115.046H83.2998L86.1744 150.18L85.493 150.074C85.2482 150.074 60.8778 146.198 54.5005 158.942C47.6972 172.549 48.3893 206.852 63.2627 224.569C74.0265 237.345 85.4824 232.33 91.3487 228.178L92.1153 227.592ZM83.4276 213.986C79.0289 214.104 74.7361 212.625 71.3436 209.823C67.2126 206.341 66.0202 198.42 65.8073 192.394C65.2643 179.363 68.4264 164.106 71.3116 161.221C74.7292 157.792 82.3842 160.039 86.6429 161.678L86.9623 161.796L90.9654 212.9L90.5289 213.006C88.2112 213.624 85.826 213.953 83.4276 213.986ZM72.025 209.014C77.5932 213.72 84.7052 213.347 89.8369 212.123L85.9508 162.594C82.5439 161.316 75.0806 159.006 72.1101 162.019C69.3526 164.723 66.3503 179.906 66.8719 192.405C67.2126 200.741 69.0013 206.501 72.025 209.067V209.014Z" fill="#263238"/>
<path d="M155.921 145.41C196.346 145.41 229.117 131.577 229.117 114.513C229.117 97.4496 196.346 83.6167 155.921 83.6167C115.496 83.6167 82.7249 97.4496 82.7249 114.513C82.7249 131.577 115.496 145.41 155.921 145.41Z" fill="white"/>
<path d="M155.921 145.953C115.261 145.953 82.1819 131.846 82.1819 114.513C82.1819 97.1805 115.261 83.0842 155.921 83.0842C196.581 83.0842 229.649 97.1911 229.649 114.513C229.649 131.836 196.538 145.953 155.921 145.953ZM155.921 84.1489C115.847 84.1489 83.2466 97.7767 83.2466 114.513C83.2466 131.25 115.847 144.888 155.921 144.888C195.995 144.888 228.585 131.261 228.585 114.513C228.585 97.766 195.985 84.1489 155.921 84.1489Z" fill="#263238"/>
<path d="M155.921 142.003C191.889 142.003 221.047 129.695 221.047 114.513C221.047 99.331 191.889 87.0234 155.921 87.0234C119.953 87.0234 90.7951 99.331 90.7951 114.513C90.7951 129.695 119.953 142.003 155.921 142.003Z" fill="white"/>
<path d="M155.921 142.546C119.722 142.546 90.2521 129.972 90.2521 114.513C90.2521 99.0543 119.712 86.4912 155.921 86.4912C192.13 86.4912 221.579 99.065 221.579 114.513C221.579 129.962 192.12 142.546 155.921 142.546ZM155.921 87.5559C120.297 87.5559 91.3168 99.6505 91.3168 114.513C91.3168 129.376 120.297 141.481 155.921 141.481C191.545 141.481 220.515 129.387 220.515 114.513C220.515 99.6399 191.534 87.5559 155.921 87.5559Z" fill="#263238"/>
<path d="M155.921 142.003C181.193 142.003 201.681 138.452 201.681 134.071C201.681 129.691 181.193 126.14 155.921 126.14C130.649 126.14 110.161 129.691 110.161 134.071C110.161 138.452 130.649 142.003 155.921 142.003Z" fill="#4E94E4"/>
<path d="M155.921 142.546C138.609 142.546 122.288 139.714 109.949 134.561L108.777 134.071L109.949 133.582C122.288 128.439 138.609 125.607 155.921 125.607C173.233 125.607 189.554 128.439 201.883 133.582L203.065 134.071L201.883 134.561C189.554 139.714 173.222 142.546 155.921 142.546ZM111.567 134.029C123.63 138.809 139.312 141.481 155.921 141.481C172.53 141.481 188.212 138.852 200.265 134.029C188.212 129.248 172.53 126.576 155.921 126.576C139.312 126.576 123.63 129.291 111.567 134.071V134.029Z" fill="#263238"/>
<path d="M414.796 195.865C414.796 195.865 449.61 278.547 457.989 282.923C466.368 287.299 712.009 265.973 712.009 265.973L705.036 258.212L704.706 204.702L713.894 204.297L620.054 80.71L408.014 96.2009C408.014 96.2009 396.696 104.037 395.121 110.893C393.545 117.75 393.95 128.003 393.95 128.003L414.796 195.865Z" fill="#263238"/>
<path d="M466.198 283.966C461.524 283.966 458.575 283.775 457.755 283.349C449.302 278.941 415.733 199.41 414.317 196.046V195.993L393.417 128.099V128.024C393.417 127.918 393.087 117.58 394.599 110.776C396.111 103.973 407.237 96.084 407.716 95.7539L407.833 95.6794H407.971L620.277 80.1565L620.448 80.3907L714.926 204.776L705.238 205.213L705.568 258.01L713.117 266.41L712.052 266.495C702.991 267.283 509.796 283.966 466.198 283.966ZM415.307 195.599C427.327 224.143 451.75 278.973 458.245 282.359C464.739 285.744 625.718 272.83 710.902 265.441L704.514 258.329V258.127L704.184 204.105L712.861 203.722L619.809 81.2638L408.205 96.7121C407.002 97.5745 397.016 104.846 395.642 111.011C394.216 117.399 394.45 126.981 394.471 127.918L415.307 195.599Z" fill="#263238"/>
<path d="M704.706 204.702L463.771 224.1C460.13 226.502 457.063 229.678 454.791 233.401C452.518 237.123 451.094 241.302 450.622 245.638C448.855 260.682 454.934 275.96 459.459 278.153C462.755 279.564 466.279 280.368 469.861 280.528L705.036 258.169L704.706 204.702Z" fill="#E0E0E0"/>
<path d="M469.914 281.071C466.247 280.916 462.639 280.094 459.267 278.643C454.402 276.28 448.375 260.544 450.132 245.638C450.626 241.225 452.078 236.974 454.388 233.181C456.698 229.389 459.81 226.148 463.504 223.685L463.728 223.61L705.238 204.116L705.579 258.681L705.089 258.734L469.914 281.071ZM463.888 224.643C460.361 227.027 457.392 230.147 455.187 233.788C452.981 237.429 451.591 241.504 451.112 245.734C449.334 260.938 455.668 275.769 459.629 277.674C462.859 279.052 466.31 279.838 469.818 279.995L704.439 257.722L704.109 205.266L463.888 224.643Z" fill="#263238"/>
<path d="M459.512 17.9476L362.318 152.149C362.318 152.149 356.995 157.366 357.272 170.153C357.548 182.94 358.177 203.797 361.977 205.287C365.778 206.778 647.022 228.071 647.022 228.071L711.967 78.0908L706.899 75.9615L708.645 38.9855L712.904 27.0186L466.656 15.4775L459.512 17.9476Z" fill="#4E94E4"/>
<path d="M647.362 228.603H646.979C635.491 227.741 365.629 207.235 361.796 205.766C358.72 204.584 357.208 193.938 356.739 170.174C356.484 157.302 361.722 152 361.945 151.777L459.182 17.5004L466.571 14.9346H466.677L713.606 26.5182L709.177 39.092L707.431 75.5676L712.648 77.8034L712.435 78.3038L647.362 228.603ZM459.842 18.3948L362.744 152.458C362.638 152.575 357.559 157.781 357.804 170.142C357.964 178.351 358.464 203.339 362.169 204.765C365.821 205.947 549.626 220.139 646.681 227.539L711.253 78.3677L706.335 76.2383L708.145 38.7938L712.126 27.487L466.73 16.0099L459.842 18.3948Z" fill="#263238"/>
<path d="M371.059 155.972C371.059 155.972 362.265 153.246 359.763 161.7C357.261 170.153 363.415 200.784 363.415 200.784C363.415 200.784 368.664 202.977 371.08 203.051C373.497 203.126 644.136 220.991 644.136 220.991L706.878 75.919L708.645 38.9856L648.619 168.982L371.059 155.972Z" fill="white"/>
<path d="M644.477 221.545H644.105C641.4 221.364 373.433 203.669 371.059 203.605C368.685 203.541 363.425 201.39 363.202 201.305L362.946 201.188L362.893 200.911C362.638 199.655 356.75 170.036 359.263 161.572C359.541 160.423 360.052 159.344 360.764 158.4C361.477 157.457 362.375 156.67 363.404 156.089C365.829 154.958 368.579 154.736 371.155 155.461L648.289 168.46L709.305 36.2812L707.367 76.1212L644.477 221.545ZM363.873 200.4C364.937 200.837 369.1 202.455 371.091 202.53C373.465 202.593 628.294 219.426 643.796 220.448L706.356 75.7912L707.985 41.7217L648.959 169.535H648.597L370.974 156.493H370.899C368.579 155.835 366.101 156.02 363.904 157.015C363.003 157.535 362.217 158.233 361.593 159.065C360.969 159.898 360.52 160.848 360.274 161.859C357.974 169.653 363.276 197.313 363.873 200.4Z" fill="#263238"/>
<path d="M642.412 168.694L371.059 155.972C371.059 155.972 362.265 153.246 359.763 161.7C357.261 170.153 363.415 200.784 363.415 200.784C363.415 200.784 368.664 202.977 371.08 203.051C373.497 203.126 644.136 220.991 644.136 220.991L643.764 169.887L642.412 168.694Z" fill="#E0E0E0"/>
<path d="M644.679 221.555H644.105C641.4 221.374 373.433 203.68 371.059 203.616C368.685 203.552 363.425 201.401 363.202 201.316L362.946 201.199L362.893 200.922C362.638 199.666 356.75 170.047 359.263 161.583C359.541 160.434 360.052 159.354 360.764 158.411C361.477 157.468 362.375 156.681 363.404 156.099C365.829 154.969 368.579 154.746 371.155 155.471L642.646 168.247L644.318 169.674V169.919L644.679 221.555ZM363.873 200.4C364.937 200.837 369.1 202.455 371.091 202.53C373.455 202.594 626.261 219.288 643.647 220.427L643.274 170.111L642.209 169.227L370.974 156.493H370.899C368.579 155.835 366.101 156.02 363.904 157.015C363.003 157.535 362.217 158.233 361.593 159.065C360.969 159.898 360.52 160.848 360.274 161.859C357.974 169.653 363.276 197.313 363.873 200.4Z" fill="#263238"/>
<path d="M407.513 430.891C407.513 430.891 417.457 445.232 427.849 445.009C497.116 443.497 616.572 476.672 630.434 476.672C644.296 476.672 654.602 475.448 654.602 472.499C654.602 469.549 605.851 276.599 605.851 276.599L596.184 273.661L629.38 461.958C629.38 461.958 588.188 456.081 504.973 442.209C421.759 428.336 425.123 416.657 415.073 418.722C405.022 420.788 407.513 430.891 407.513 430.891Z" fill="#4E94E4"/>
<path d="M630.434 477.183C626.239 477.183 612.612 474.213 593.756 470.103C549.849 460.521 476.334 444.466 427.859 445.616H427.572C417.117 445.616 407.46 431.86 407.056 431.274L406.97 431.093C406.97 430.902 405.821 426.324 408.184 422.576C408.956 421.438 409.955 420.472 411.118 419.739C412.282 419.006 413.585 418.522 414.945 418.317C418.565 417.572 420.545 418.509 424.868 420.575C433.119 424.503 450.281 432.669 505.037 441.804C581.396 454.58 622.832 460.596 628.709 461.447L595.481 273L606.266 276.29L606.341 276.578C608.332 284.456 655.113 469.603 655.113 472.573C655.113 475.543 646.83 477.183 630.434 477.183ZM432.618 444.455C481.189 444.455 551.446 459.776 593.98 469.06C612.771 473.159 626.346 476.118 630.434 476.118C647.863 476.118 654.07 474.245 654.07 472.477C653.921 469.613 622.215 343.588 605.372 277.036L596.855 274.438L630.04 462.608L629.306 462.501C628.901 462.437 587.155 456.454 504.888 442.741C449.973 433.595 432.725 425.376 424.431 421.448C420.172 419.435 418.448 418.594 415.19 419.318C413.965 419.499 412.792 419.932 411.744 420.59C410.695 421.248 409.795 422.117 409.1 423.14C407.846 425.473 407.468 428.177 408.035 430.763C408.866 431.924 418.309 444.775 427.87 444.604C429.403 444.466 431 444.455 432.618 444.455Z" fill="#263238"/>
<path d="M640.314 471.636C626.027 470.795 598.228 463.566 529.589 449.48C460.949 435.395 409.558 426.867 409.558 426.867L408.11 431.817C410.484 434.937 418.98 445.232 427.795 445.041C497.116 443.497 616.572 476.672 630.434 476.672C644.296 476.672 654.602 475.448 654.602 472.498C654.602 472.243 647.437 472.062 640.314 471.636Z" fill="#263238"/>
<path d="M630.434 477.183C626.239 477.183 612.612 474.213 593.756 470.103C549.849 460.521 476.355 444.476 427.859 445.615C418.767 445.85 410.175 435.384 407.737 432.179L407.577 431.966L409.228 426.313L409.696 426.387C410.207 426.473 461.95 435.086 529.748 449.001C554.321 454.048 573.56 458.189 589.008 461.522C616.221 467.388 631.211 470.614 640.346 471.104C643.061 471.263 645.797 471.391 648.129 471.498C655.135 471.828 655.135 471.828 655.135 472.477C655.135 475.607 646.83 477.183 630.434 477.183ZM432.618 444.455C481.189 444.455 551.446 459.776 593.98 469.06C612.771 473.159 626.346 476.118 630.434 476.118C646.521 476.118 653.048 474.521 653.953 472.924C652.973 472.818 650.578 472.711 648.076 472.594C645.744 472.488 643.008 472.36 640.282 472.2C631.073 471.657 616.051 468.421 588.784 462.554C573.336 459.222 554.097 455.102 529.535 450.034C465.176 436.821 415.307 428.4 409.983 427.505L408.748 431.764C411.282 435.054 419.321 444.54 427.604 444.54H427.838C429.403 444.466 431 444.455 432.618 444.455Z" fill="#263238"/>
<path d="M183.059 269.061C183.059 269.061 178.013 270.743 177.183 274.523C176.352 278.302 128.005 472.072 132.626 472.552C137.247 473.031 391.959 474.681 394.897 471.71C397.836 468.74 407.513 430.891 407.513 430.891L386.05 459.925L164.971 454.463L191.449 273.724L183.059 269.061Z" fill="#4E94E4"/>
<path d="M292.263 473.989C219.237 473.989 133.957 473.19 132.562 473.063C132.458 473.053 132.357 473.021 132.266 472.968C132.176 472.914 132.099 472.841 132.04 472.754C131.274 471.689 128.932 468.389 174.425 283.53C175.745 278.207 176.554 274.906 176.65 274.448C177.545 270.424 182.666 268.667 182.879 268.603L183.102 268.529L192.035 273.437L165.599 453.941L385.815 459.392L408.695 428.421L408.024 431.061C407.034 434.948 398.24 469.113 395.248 472.073C393.8 473.552 346.391 473.989 292.263 473.989ZM132.882 472.019C141.324 472.254 389.02 474.074 394.588 471.274C396.718 469.145 403.223 445.317 406.3 433.446L386.326 460.468H386.05L164.364 454.995L164.449 454.399L190.874 274.023L183.006 269.7C182.069 270.062 178.354 271.68 177.683 274.693C177.587 275.162 176.789 278.409 175.458 283.796C136.97 440.228 132.147 469.219 132.882 472.019Z" fill="#263238"/>
<path d="M394.897 471.7C397.846 468.751 407.513 430.923 407.513 430.923L406.087 432.839L392.8 467.09L135.149 470.411L132.583 472.541C137.247 472.956 391.959 474.638 394.897 471.7Z" fill="#263238"/>
<path d="M292.263 473.989C219.237 473.989 133.957 473.19 132.562 473.063L131.285 472.945L134.99 469.858H135.181L392.438 466.547L405.661 432.531L408.695 428.421L408.024 431.061C407.034 434.947 398.24 469.113 395.248 472.072C393.801 473.552 346.401 473.989 292.263 473.989ZM134.053 472.04C154.281 472.349 388.392 473.999 394.556 471.285C396.686 468.974 402.903 446.467 406.065 434.383L393.162 467.601H392.81L135.394 470.923L134.053 472.04Z" fill="#263238"/>
<path d="M188.947 266.58L183.059 269.104L142.293 466.227L392.8 467.068L409.611 423.779L174.233 435.128L196.091 266.165L188.947 266.58Z" fill="white"/>
<path d="M393.162 467.601H392.8L141.633 466.76L182.602 268.731L188.915 266.058L196.698 265.601L196.623 266.239L174.84 434.564L410.409 423.214L393.162 467.601ZM142.964 465.706L392.459 466.536L408.844 424.354L173.626 435.692L173.712 435.064L195.474 266.729L189.086 267.112L183.539 269.487L142.964 465.706Z" fill="#263238"/>
<path d="M159.104 441.431L147.68 460.435L142.293 466.227L392.8 467.068L409.611 423.779L174.233 435.128L159.104 441.431Z" fill="#E0E0E0"/>
<path d="M393.162 467.601H392.8L141.069 466.76L147.255 460.105L158.742 441.005L174.212 434.617L410.409 423.236L393.162 467.601ZM143.507 465.706L392.438 466.536L408.823 424.354L174.35 435.661L159.445 441.857L148.053 460.797L143.507 465.706Z" fill="#263238"/>
<path d="M409.611 423.779V385.11L207.44 407.383L192.311 433.872L409.611 423.779Z" fill="#B8B8B8"/>
<path d="M191.364 434.447L207.11 406.893H207.387L410.143 384.535V424.29H409.632L191.364 434.447ZM207.771 407.883L193.248 433.286L409.078 423.268V385.706L207.771 407.883Z" fill="#263238"/>
<path d="M198.188 245.149L192.311 245.99L159.104 441.431C159.104 441.431 186.424 439.302 223.411 430.508C260.397 421.714 335.637 408.224 360.86 412.015C386.082 415.805 407.513 430.891 407.513 430.891C407.513 430.891 438.985 437.141 474.29 444.285C509.594 451.429 562.136 462.384 597.025 468.251C631.914 474.117 640.314 471.604 640.314 471.604L597.025 270.275L592.819 269.061L615.933 451.471C615.933 451.471 470.159 411.174 450.803 411.174C431.447 411.174 420.992 390.572 382.291 383.013C343.591 375.454 300.312 390.572 263.762 396.854C240.845 400.9 218.235 406.521 196.091 413.675L205.758 245.127L198.188 245.149Z" fill="#E0E0E0"/>
<path d="M633.16 472.722C626.878 472.722 615.752 471.977 596.961 468.804C567.576 463.896 525.756 455.378 492.155 448.49L474.183 444.838C439.283 437.779 407.726 431.509 407.407 431.445L407.205 431.359C406.992 431.21 385.571 416.262 360.774 412.536C335.158 408.693 257.501 422.917 223.538 431.019C202.358 436.176 180.841 439.833 159.147 441.964L158.466 442.017L158.583 441.346L191.854 245.511L198.242 244.616H206.376L196.719 412.941C218.659 405.917 241.046 400.375 263.73 396.353C272.95 394.767 282.457 392.648 292.529 390.402C322.478 383.715 353.439 376.816 382.451 382.491C403.393 386.59 416.159 394.522 426.422 400.889C435.184 406.34 442.105 410.641 450.856 410.641C469.52 410.641 602.7 447.244 615.358 450.737L592.181 268.305L597.504 269.892L597.568 270.2L640.932 472.009L640.463 472.147C640.304 472.2 638.43 472.722 633.16 472.722ZM407.726 430.423C409.792 430.838 440.518 436.938 474.396 443.795L492.368 447.447C525.958 454.292 567.768 462.799 597.11 467.75C626.995 472.796 637.45 471.625 639.697 471.231L596.567 270.733L593.448 269.796L616.562 452.184L615.795 451.972C614.336 451.567 469.85 411.695 450.771 411.695C441.711 411.695 434.673 407.319 425.773 401.783C415.594 395.459 402.914 387.58 382.121 383.524C353.375 377.892 322.499 384.769 292.689 391.424C282.606 393.67 273.088 395.799 263.836 397.396C240.948 401.447 218.364 407.057 196.24 414.186L195.495 414.442L205.194 245.638H198.231L192.769 246.416L159.765 440.803C181.171 438.635 202.403 435.007 223.315 429.943C258.449 421.565 334.86 407.585 360.955 411.44C385.145 415.113 406.14 429.326 407.726 430.423Z" fill="#263238"/>
<path d="M174.233 435.128L159.104 441.431L192.311 245.99L205.758 245.148L174.233 435.128Z" fill="white"/>
<path d="M158.412 442.294L191.854 245.479L206.397 244.574L174.712 435.512L158.412 442.294ZM192.759 246.49L159.754 440.569L173.722 434.745L205.088 245.724L192.759 246.49Z" fill="#263238"/>
<path d="M404.564 219.085C404.564 219.085 408.354 212.357 442.818 221.215C477.281 230.073 513.374 252.26 542.801 256.455C572.229 260.65 591.531 264.802 591.531 264.802L631.467 467.398C631.467 467.398 566.341 458.572 504.973 442.219C443.606 425.866 417.596 414.921 409.611 423.779L404.564 219.085Z" fill="white"/>
<path d="M632.148 468.069L631.414 467.963C630.764 467.878 565.532 458.945 504.835 442.73C490.228 438.834 477.771 435.278 466.794 432.158C432.895 422.501 415.86 417.657 410.005 424.141L409.11 425.121L404.032 218.958L404.106 218.83C404.266 218.532 408.482 211.846 442.946 220.672C458.681 224.707 474.779 231.531 490.345 238.122C509.158 246.096 526.916 253.634 542.876 255.912C571.973 260.065 591.478 264.281 591.67 264.323L592.01 264.398L632.148 468.069ZM419.054 420.085C428.317 420.085 443.403 424.343 467.124 431.136C478.101 434.255 490.547 437.801 505.154 441.708C562.253 456.965 623.471 465.77 630.818 466.802L591.105 265.292C588.38 264.717 569.684 260.821 542.727 256.966C526.629 254.667 508.806 247.108 489.93 239.112C474.407 232.522 458.341 225.718 442.679 221.705C411.804 213.783 405.821 218.511 405.107 219.266L410.111 422.619C412.166 420.862 415.062 420.085 419.054 420.085Z" fill="#263238"/>
<path d="M580.714 290.355C512.873 275.449 508.796 275.002 508.646 274.991V273.927C508.732 273.927 511.617 274.097 580.906 289.322L580.714 290.355Z" fill="#263238"/>
<path d="M582.205 299.096C573.559 297.19 565.596 295.423 558.452 293.826C549.413 291.813 541.609 290.078 535.391 288.747C511.904 283.711 509.445 283.498 509.349 283.488L509.402 282.423C509.488 282.423 511.691 282.583 535.615 287.746C541.832 289.077 549.636 290.823 558.675 292.835L582.439 298.095L582.205 299.096Z" fill="#263238"/>
<path d="M583.695 307.847C574.688 305.867 565.798 303.844 557.941 302.055C549.562 300.149 542.333 298.51 536.392 297.232C513.331 292.292 510.169 292.015 510.041 292.005L510.116 290.94C510.233 290.94 513.31 291.195 536.615 296.189C542.556 297.466 549.796 299.117 558.186 301.022C566.032 302.8 574.922 304.823 583.929 306.804L583.695 307.847Z" fill="#263238"/>
<path d="M585.143 316.599C576.626 314.736 567.949 312.713 559.527 310.754C551.287 308.848 543.493 307.038 537.361 305.718C514.822 300.884 510.744 300.533 510.744 300.522L510.818 299.458C510.978 299.458 514.917 299.798 537.637 304.674C543.781 305.995 551.574 307.794 559.825 309.71C568.247 311.659 576.956 313.682 585.377 315.545L585.143 316.599Z" fill="#263238"/>
<path d="M586.687 325.35C578.936 323.647 570.206 321.581 561.774 319.59C553.096 317.546 544.899 315.598 538.404 314.267C516.429 309.55 511.479 309.103 511.425 309.103L511.51 308.039C511.702 308.039 516.514 308.475 538.628 313.224C545.133 314.618 553.331 316.556 562.05 318.611C570.483 320.602 579.202 322.657 586.942 324.36L586.687 325.35Z" fill="#263238"/>
<path d="M588.177 334.102C581.214 332.569 572.601 330.503 564.265 328.502C555.449 326.372 546.325 324.179 539.416 322.699C518.005 318.1 512.181 317.568 512.117 317.568L512.213 316.503C512.447 316.503 518.122 317.035 539.639 321.656C546.559 323.146 555.684 325.34 564.52 327.458C572.846 329.46 581.449 331.536 588.401 333.059L588.177 334.102Z" fill="#263238"/>
<path d="M589.668 342.853C583.504 341.501 575.444 339.531 566.905 337.445C557.515 335.145 547.741 332.771 540.416 331.184C519.602 326.713 512.884 326.095 512.82 326.085L512.905 325.02C512.969 325.02 519.73 325.638 540.64 330.13C548.029 331.727 557.76 334.102 567.161 336.401C575.678 338.477 583.738 340.447 589.892 341.799L589.668 342.853Z" fill="#263238"/>
<path d="M591.159 351.605C585.835 350.423 577.967 348.486 569.695 346.431C559.676 343.94 549.317 341.374 541.428 339.67C521.199 335.326 513.587 334.613 513.512 334.613L513.608 333.548C513.682 333.548 521.337 334.272 541.651 338.627C549.551 340.33 559.921 342.886 569.95 345.398C578.223 347.453 586.027 349.391 591.382 350.562L591.159 351.605Z" fill="#263238"/>
<path d="M592.649 360.356C588.05 359.345 580.565 357.461 572.655 355.47C562.455 352.893 550.893 349.976 542.429 348.155C522.796 343.897 514.289 343.141 514.204 343.13L514.3 342.065C514.385 342.065 522.945 342.885 542.652 347.123C551.17 348.943 562.7 351.86 572.91 354.437C580.821 356.428 588.295 358.312 592.883 359.324L592.649 360.356Z" fill="#263238"/>
<path d="M594.14 369.14C590.286 368.299 583.493 366.574 575.721 364.573C564.84 361.783 552.511 358.632 543.44 356.673C524.404 352.584 514.992 351.69 514.907 351.679L515.003 350.615C515.098 350.615 524.585 351.52 543.664 355.629C552.756 357.588 565.095 360.74 575.987 363.529C583.791 365.52 590.53 367.256 594.374 368.097L594.14 369.14Z" fill="#263238"/>
<path d="M595.63 377.87C592.5 377.178 586.229 375.549 578.968 373.665C567.927 370.801 554.193 367.277 544.441 365.148C526.011 361.176 515.695 360.186 515.599 360.186L515.695 359.122C525.439 360.268 535.116 361.928 544.686 364.094C554.459 366.223 568.204 369.768 579.255 372.611C586.506 374.495 592.766 376.124 595.886 376.806L595.63 377.87Z" fill="#263238"/>
<path d="M597.131 386.622C594.672 386.079 589.232 384.641 582.343 382.831C571.207 379.904 555.95 375.89 545.452 373.622C535.826 371.465 526.092 369.819 516.291 368.693L516.397 367.628C526.237 368.764 536.01 370.416 545.676 372.579C556.195 374.846 571.462 378.871 582.62 381.809C589.487 383.609 594.917 385.003 597.355 385.578L597.131 386.622Z" fill="#263238"/>
<path d="M598.622 395.373C596.801 394.969 592.01 393.691 585.952 392.073C574.071 388.879 557.802 384.556 546.453 382.108C536.726 379.958 526.893 378.324 516.994 377.21L517.089 376.146C527.031 377.259 536.908 378.897 546.677 381.054C558.047 383.513 574.358 387.857 586.229 391.04C592.276 392.648 597.046 393.926 598.845 394.319L598.622 395.373Z" fill="#263238"/>
<path d="M600.112 404.125C598.877 403.848 595.076 402.826 589.817 401.4C578.595 398.355 559.793 393.266 547.464 390.593C537.618 388.458 527.668 386.834 517.654 385.728L517.76 384.663C527.804 385.766 537.783 387.397 547.656 389.55C560.017 392.212 578.83 397.311 590.062 400.356C595.311 401.783 599.101 402.805 600.304 403.071L600.112 404.125Z" fill="#263238"/>
<path d="M601.603 412.876C600.89 412.717 598.143 411.961 593.991 410.822C582.812 407.734 562.05 402.006 548.465 399.11C538.527 396.982 528.484 395.372 518.378 394.287L518.484 393.223C528.63 394.315 538.712 395.935 548.689 398.078C562.253 401.005 583.078 406.744 594.267 409.789C598.26 410.854 601.145 411.684 601.827 411.833L601.603 412.876Z" fill="#263238"/>
<path d="M603.093 421.628C602.817 421.565 601.358 421.16 598.728 420.425C588.529 417.561 564.659 410.843 549.477 407.575C539.451 405.455 529.324 403.852 519.134 402.773L519.229 401.708C529.479 402.798 539.667 404.408 549.753 406.531C564.968 409.821 588.87 416.529 599.069 419.393C601.422 420.053 603.125 420.532 603.381 420.585L603.093 421.628Z" fill="#263238"/>
<path d="M604.552 430.369C604.211 430.273 569.865 420.255 550.477 416.06C535.636 412.866 519.932 411.312 519.772 411.29L519.879 410.226C530.226 411.302 540.514 412.897 550.701 415.006C570.121 419.265 604.509 429.241 604.85 429.336L604.552 430.369Z" fill="#263238"/>
<path d="M497.84 272C484.628 265.92 475.333 260.618 467.87 256.359C460.108 251.92 453.965 248.428 447.194 246.234C437.599 243.341 427.689 241.618 417.681 241.103V240.038C427.791 240.554 437.801 242.295 447.492 245.223C454.38 247.448 460.555 250.972 468.381 255.433C475.833 259.692 485.096 265.015 498.266 271.031L497.84 272Z" fill="#263238"/>
<path d="M498.553 280.645C486.704 275.194 477.973 270.275 470.957 266.325C462.77 261.715 456.297 258.074 448.706 255.614C433.992 250.834 419.065 250.046 417.915 250.227L417.638 249.162C418.341 248.95 433.609 249.567 449.036 254.571C456.733 257.062 463.238 260.725 471.479 265.367C478.836 269.508 487.183 274.214 499.001 279.655L498.553 280.645Z" fill="#263238"/>
<path d="M499.224 289.29C488.663 284.424 480.859 280.091 473.97 276.258C465.4 271.488 458.628 267.741 450.185 264.973C433.662 259.585 418.916 259.074 418.011 259.34L417.692 258.276C418.969 257.871 434.237 258.606 450.516 263.919C459.033 266.708 465.868 270.488 474.492 275.289C481.359 279.101 489.142 283.434 499.671 288.278L499.224 289.29Z" fill="#263238"/>
<path d="M499.906 297.946C490.558 293.687 483.339 289.684 476.973 286.234C468.455 281.528 461.002 277.472 451.665 274.406C434.247 268.699 419.629 268.018 418.064 268.518L417.745 267.507C419.874 266.825 434.939 267.805 451.995 273.394C461.439 276.482 468.87 280.57 477.484 285.297C483.872 288.79 491.037 292.75 500.342 297.009L499.906 297.946Z" fill="#263238"/>
<path d="M500.576 306.601C492.389 302.832 485.777 299.244 479.943 296.082C471.085 291.27 463.441 287.128 453.135 283.732C434.482 277.6 420.13 276.971 418.118 277.61L417.798 276.599C420.385 275.768 435.653 276.865 453.475 282.721C463.866 286.138 471.575 290.312 480.454 295.145C486.267 298.339 492.868 301.874 501.013 305.632L500.576 306.601Z" fill="#263238"/>
<path d="M501.247 315.246C494.156 311.989 488.418 308.912 482.882 305.931C473.779 301.054 465.911 296.838 454.614 293.155C434.886 286.639 420.747 285.968 418.171 286.766L417.851 285.755C421.099 284.69 436.281 285.957 454.945 292.143C466.336 295.901 474.62 300.341 483.382 305.036C488.908 308.007 494.635 311.073 501.694 314.32L501.247 315.246Z" fill="#263238"/>
<path d="M501.918 323.892C495.86 321.113 490.728 318.387 485.777 315.757C476.866 311.041 468.455 306.58 456.094 302.481C435.791 295.763 421.407 294.858 418.224 295.88L417.905 294.815C421.716 293.602 436.6 294.815 456.424 301.427C468.87 305.558 477.324 310.03 486.235 314.778C491.186 317.397 496.307 320.101 502.333 322.88L501.918 323.892Z" fill="#263238"/>
<path d="M502.589 332.547C497.499 330.205 493.006 327.831 488.609 325.542C479.581 320.804 471.042 316.332 457.564 311.861C435.898 304.653 421.972 303.833 418.277 305.004L417.958 303.993C422.738 302.47 438.368 304.355 457.904 310.849C471.468 315.353 480.433 320.059 489.11 324.605C493.464 326.883 497.968 329.247 503.036 331.578L502.589 332.547Z" fill="#263238"/>
<path d="M503.259 341.192C499.065 339.265 495.338 337.328 491.388 335.284C481.037 329.664 470.215 324.962 459.044 321.23C437.899 314.182 423.111 312.617 418.331 314.139L418.011 313.128C423.122 311.499 437.889 313.064 459.384 320.218C470.606 323.97 481.478 328.694 491.878 334.336C495.817 336.38 499.533 338.307 503.706 340.224L503.259 341.192Z" fill="#263238"/>
<path d="M503.93 349.838C500.566 348.294 497.425 346.644 494.092 344.972C483.347 339.244 472.135 334.439 460.577 330.61C437.101 322.763 423.207 321.762 418.437 323.274L418.118 322.263C423.271 320.623 437.218 321.688 460.917 329.598C472.545 333.443 483.825 338.269 494.635 344.024C497.947 345.728 501.087 347.336 504.43 348.879L503.93 349.838Z" fill="#263238"/>
<path d="M504.601 358.494C501.992 357.291 499.426 355.981 496.701 354.608C485.555 348.79 473.95 343.897 462.003 339.979C432.373 330.067 421.663 331.376 418.437 332.409L418.118 331.344C425.144 329.119 441.263 331.877 462.333 338.925C474.334 342.852 485.99 347.767 497.18 353.617C499.895 354.991 502.45 356.29 505.048 357.482L504.601 358.494Z" fill="#263238"/>
<path d="M505.293 367.139C503.355 366.244 501.343 365.233 499.214 364.168C487.72 358.286 475.776 353.33 463.494 349.348C435.514 339.968 423.59 339.926 418.511 341.544L418.192 340.479C425.645 338.094 441.476 340.799 463.835 348.304C476.164 352.314 488.154 357.298 499.693 363.21C501.822 364.275 503.824 365.275 505.74 366.159L505.293 367.139Z" fill="#263238"/>
<path d="M505.942 375.794C504.601 375.166 503.185 374.463 501.545 373.665C495.029 370.471 485.181 365.541 464.952 358.759C441.806 350.977 426.198 348.272 418.543 350.7L418.224 349.688C426.198 347.154 441.594 349.784 465.293 357.748C485.586 364.572 495.477 369.459 502.014 372.728C503.653 373.537 505.059 374.24 506.389 374.857L505.942 375.794Z" fill="#263238"/>
<path d="M506.613 384.439C505.772 384.045 504.824 383.588 503.717 383.045C497.957 380.213 488.311 375.475 466.454 368.139C441.966 359.899 426.752 357.258 418.618 359.845L418.299 358.781C426.656 356.119 442.062 358.781 466.794 367.085C488.737 374.474 498.426 379.233 504.207 382.076C505.272 382.619 506.251 383.077 507.081 383.46L506.613 384.439Z" fill="#263238"/>
<path d="M507.284 393.084L505.665 392.307C501.407 390.263 491.601 385.461 467.912 377.476C442.019 368.746 427.284 366.191 418.661 368.959L418.33 367.948C427.199 365.126 442.126 367.681 468.253 376.465C492.006 384.482 501.907 389.294 506.134 391.37C506.773 391.69 507.294 391.945 507.731 392.137L507.284 393.084Z" fill="#263238"/>
<path d="M507.954 401.74L507.337 401.442C499.224 397.524 486.459 392.616 469.381 386.846C442.413 377.743 427.732 375.198 418.714 378.073L418.384 377.008C427.774 374.027 442.168 376.486 469.722 385.802C486.842 391.583 499.65 396.502 507.795 400.441L508.402 400.729L507.954 401.74Z" fill="#263238"/>
<path d="M508.615 410.375C508.529 410.375 499.693 405.978 470.861 396.225C442.435 386.643 428.275 384.163 418.767 387.197L418.437 386.186C428.232 383.066 442.53 385.515 471.202 395.214C500.129 404.998 509.009 409.385 509.094 409.427L508.615 410.375Z" fill="#263238"/>
<path d="M404.564 219.085L409.611 423.779C409.611 423.779 394.482 392.68 354.131 393.968C313.78 395.256 224.677 426.334 210.4 429.272C196.123 432.211 174.233 435.149 174.233 435.149L198.188 239.708C198.188 239.708 304.07 220.352 326.428 213.623C348.786 206.895 368.046 199.783 382.334 203.115C396.622 206.447 404.564 209.003 404.564 219.085Z" fill="white"/>
<path d="M173.626 435.746L173.712 435.065L197.709 239.25L198.093 239.176C199.157 238.984 304.24 219.777 326.236 213.134C329.118 212.261 331.957 211.391 334.754 210.525C353.588 204.691 369.888 199.655 382.43 202.615C396.494 205.926 405.118 208.492 405.118 219.096L410.228 426.228L409.164 424.035C409.015 423.726 393.694 393.244 354.173 394.49C324.533 395.416 268.606 412.462 235.186 422.64C223.07 426.334 214.308 429.028 210.517 429.784C196.379 432.701 174.553 435.65 174.319 435.682L173.626 435.746ZM198.668 240.134L174.851 434.511C178.662 433.979 197.582 431.317 210.272 428.719C214.02 427.953 223.208 425.152 234.845 421.607C268.318 411.408 324.277 394.341 354.088 393.404C388.509 392.339 404.894 414.921 409.004 421.671L404.011 219.085C404.011 209.259 396.111 206.916 382.153 203.637C369.845 200.741 353.716 205.766 335.031 211.526C332.241 212.378 329.409 213.262 326.513 214.135C305.135 220.587 205.716 238.846 198.668 240.134Z" fill="#263238"/>
<path d="M301.539 245.579L222.712 263.275L222.947 264.318L301.774 246.622L301.539 245.579Z" fill="#263238"/>
<path d="M220.504 272.521L220.27 271.456C237.507 267.57 270.309 260.15 271.236 259.862C272.3 259.521 298.342 253.73 299.449 253.474L299.673 254.539C290.314 256.668 272.385 260.639 271.555 260.927C270.384 261.278 222.537 272.063 220.504 272.521Z" fill="#263238"/>
<path d="M219.642 281.273L219.407 280.208C219.897 280.091 268.521 269.008 270.788 268.295C273.056 267.581 298.172 262.013 299.247 261.768L299.481 262.833C299.215 262.833 273.205 268.667 271.108 269.327C268.797 270.126 221.654 280.772 219.642 281.273Z" fill="#263238"/>
<path d="M218.79 290.025L218.545 288.96C219.024 288.853 266.924 277.802 270.352 276.727C273.546 275.726 298.033 270.286 299.045 270.062L299.279 271.127C299.023 271.191 273.812 276.78 270.671 277.77C267.211 278.856 220.759 289.577 218.79 290.025Z" fill="#263238"/>
<path d="M217.927 298.787L217.683 297.722C218.162 297.615 265.337 286.596 269.905 285.159C274.163 283.828 297.842 278.579 298.853 278.355L299.077 279.42C298.832 279.42 274.419 284.882 270.224 286.202C265.614 287.65 219.865 298.329 217.927 298.787Z" fill="#263238"/>
<path d="M217.065 307.528L216.82 306.463C217.289 306.356 263.751 295.38 269.468 293.58C274.792 291.919 297.682 286.852 298.651 286.639L298.885 287.703C298.64 287.757 275.036 293.027 269.788 294.624C264.028 296.434 218.981 307.08 217.065 307.528Z" fill="#263238"/>
<path d="M216.203 316.29L215.958 315.225C216.416 315.119 262.154 304.185 269.021 302.023C275.409 300.022 298.225 294.986 298.449 294.933L298.683 295.997C298.449 296.051 275.643 301.076 269.34 303.056C262.441 305.26 216.661 316.173 216.203 316.29Z" fill="#263238"/>
<path d="M215.34 325.042L215.095 323.977C215.543 323.871 260.568 312.968 268.574 310.456C276.027 308.124 298.033 303.269 298.257 303.227L298.48 304.291C298.257 304.344 276.261 309.189 268.893 311.499C260.855 314.022 215.798 324.925 215.34 325.042Z" fill="#263238"/>
<path d="M214.478 333.793L214.233 332.728C214.67 332.611 258.949 321.751 268.137 318.887C276.591 316.226 297.842 311.563 298.055 311.509L298.289 312.574C298.065 312.574 276.868 317.28 268.478 319.92C259.258 322.805 214.925 333.686 214.478 333.793Z" fill="#263238"/>
<path d="M213.626 342.523L213.36 341.459C213.807 341.352 257.384 330.525 267.658 327.277C277.176 324.286 297.618 319.825 297.82 319.771L298.055 320.836C297.852 320.836 277.453 325.34 267.978 328.289C257.672 331.6 214.063 342.438 213.626 342.523Z" fill="#263238"/>
<path d="M212.764 351.296L212.498 350.231C212.934 350.125 255.787 339.329 267.254 335.731C277.815 332.409 297.458 328.118 297.661 328.076L297.884 329.14C297.693 329.14 278.092 333.463 267.562 336.763C256.085 340.394 213.19 351.19 212.764 351.296Z" fill="#263238"/>
<path d="M211.901 360.048L211.635 358.983C212.061 358.877 254.222 348.124 266.807 344.163C278.433 340.511 297.267 336.412 297.458 336.37L297.682 337.434C297.501 337.434 278.699 341.555 267.126 345.196C254.488 349.178 212.327 359.941 211.901 360.048Z" fill="#263238"/>
<path d="M211.039 368.8L210.773 367.735C211.188 367.628 252.614 356.918 266.359 352.595C279.04 348.603 297.086 344.695 297.235 344.653L297.458 345.718C297.277 345.718 279.284 349.657 266.647 353.628C252.902 357.972 211.444 368.693 211.039 368.8Z" fill="#263238"/>
<path d="M210.177 377.551L209.91 376.486C210.315 376.38 251.017 365.701 265.923 361.027C279.657 356.705 296.894 352.978 297.064 352.946L297.288 354.011C297.118 354.011 279.923 357.759 266.242 362.06C251.316 366.755 210.592 377.444 210.177 377.551Z" fill="#263238"/>
<path d="M209.314 386.302L209.037 385.238C209.442 385.121 249.42 374.485 265.465 369.438C280.253 364.796 296.692 361.261 296.852 361.219L297.075 362.283C296.915 362.283 280.53 365.839 265.784 370.481C249.772 375.528 209.719 386.175 209.314 386.302Z" fill="#263238"/>
<path d="M208.463 395.054L208.186 393.989C208.58 393.883 247.834 383.279 265.028 377.87C280.881 372.888 296.511 369.545 296.671 369.513L296.883 370.577C296.734 370.577 281.148 373.942 265.348 378.903C248.132 384.344 208.856 394.948 208.463 395.054Z" fill="#263238"/>
<path d="M207.6 403.806L207.323 402.741C207.707 402.635 246.248 392.094 264.592 386.303C281.488 380.979 296.319 377.785 296.468 377.785L296.692 378.85C296.543 378.85 281.786 382.044 264.911 387.367C246.578 393.127 207.983 403.699 207.6 403.806Z" fill="#263238"/>
<path d="M311.065 243.072L310.735 242.008C313.737 241.05 384.389 218.691 395.11 230.477L394.322 231.201C384.059 219.958 311.789 242.838 311.065 243.072Z" fill="#263238"/>
<path d="M310.831 251.558L310.501 250.546C310.756 250.461 335.637 242.476 357.772 238.313C367.162 236.567 389.606 233.16 395.142 239.25L394.354 239.974C390.766 236.014 377.16 235.79 357.964 239.357C335.904 243.509 311.076 251.473 310.831 251.558Z" fill="#263238"/>
<path d="M310.596 260.043L310.277 259.032C310.522 258.947 335.829 250.738 357.687 246.692C376.627 243.264 391.352 243.764 395.174 247.97L394.386 248.694C390.862 244.808 376.18 244.435 357.878 247.746C336.117 251.771 310.852 259.958 310.596 260.043Z" fill="#263238"/>
<path d="M310.373 268.528L310.032 267.517C310.298 267.432 336.053 258.946 357.591 255.082C375.595 251.888 391.416 252.526 395.206 256.689L394.418 257.413C390.915 253.559 375.169 253.006 357.783 256.125C336.319 259.979 310.628 268.443 310.373 268.528Z" fill="#263238"/>
<path d="M310.139 277.014L309.809 275.95C310.064 275.864 336.266 267.145 357.506 263.408C374.892 260.352 391.469 261.204 395.238 265.356L394.45 266.08C391.405 262.726 376.489 261.151 357.687 264.451C336.532 268.231 310.458 276.929 310.139 277.014Z" fill="#263238"/>
<path d="M309.915 285.51L309.574 284.499C309.841 284.403 336.479 275.449 357.421 271.84C375.925 268.646 391.927 270.456 395.28 274.129L394.482 274.853C391.82 271.915 377.149 269.53 357.602 272.894C336.745 276.514 310.181 285.415 309.915 285.51Z" fill="#263238"/>
<path d="M309.681 293.996L309.34 292.984C309.606 292.888 336.692 283.7 357.335 280.208C377.202 276.876 392.438 279.708 395.312 282.902L394.524 283.626C392.108 280.964 377.671 277.93 357.506 281.326C336.958 284.733 309.947 293.9 309.681 293.996Z" fill="#263238"/>
<path d="M309.447 302.481L309.106 301.47C309.383 301.374 336.915 291.962 357.24 288.608C377.564 285.255 392.789 288.768 395.344 291.568L394.556 292.292C392.203 289.705 376.968 286.436 357.421 289.652C337.171 292.995 309.723 302.385 309.447 302.481Z" fill="#263238"/>
<path d="M309.223 310.967L308.872 309.966C309.148 309.859 337.128 300.224 357.154 296.988C377.021 293.794 392.821 297.488 395.376 300.288L394.567 301.001C392.438 298.659 377.192 294.816 357.304 298.031C337.415 301.246 309.5 310.871 309.223 310.967Z" fill="#263238"/>
<path d="M308.989 319.452L308.637 318.451C308.925 318.345 337.384 308.486 357.069 305.366C377.298 302.172 393.098 306.431 395.397 309.007L394.61 309.731C392.906 307.858 377.916 303.152 357.218 306.42C337.607 309.518 309.276 319.356 308.989 319.452Z" fill="#263238"/>
<path d="M308.755 327.937L308.403 326.937C308.691 326.83 337.554 316.748 356.984 313.756C378.011 310.509 393.598 315.704 395.44 317.727L394.652 318.451C393.375 317.046 378.959 311.435 357.144 314.799C337.82 317.791 309.042 327.842 308.755 327.937Z" fill="#263238"/>
<path d="M308.52 336.434L308.169 335.422C308.467 335.316 337.777 325.02 356.888 322.135C379.065 318.781 394.099 324.935 395.472 326.394L394.684 327.118C393.545 325.851 378.714 319.867 357.048 323.136C338.033 326.053 308.818 336.327 308.52 336.434Z" fill="#263238"/>
<path d="M308.329 344.919L307.967 343.907C308.265 343.812 338.022 333.261 356.835 330.514C378.852 327.32 394.311 333.814 395.536 335.167L394.748 335.89C394.077 335.145 379.672 328.225 356.995 331.568C338.246 334.325 308.595 344.812 308.329 344.919Z" fill="#263238"/>
<path d="M308.062 353.404L307.701 352.403C308.009 352.286 338.203 341.565 356.675 338.893C378.629 335.699 394.237 342.502 395.493 343.886L394.705 344.61C393.843 343.748 379.119 336.742 356.824 339.947C338.469 342.598 308.329 353.298 308.062 353.404Z" fill="#263238"/>
<path d="M307.828 361.889L307.477 360.889C307.775 360.782 338.427 349.869 356.622 347.282C379.64 344.088 394.844 351.807 395.568 352.605L394.791 353.329C393.587 352.265 378.661 345.302 356.771 348.336C338.682 350.913 308.137 361.783 307.828 361.889Z" fill="#263238"/>
<path d="M307.605 370.375L307.243 369.374C307.551 369.268 338.64 358.131 356.537 355.661C379.491 352.542 394.865 360.506 395.61 361.325L394.823 362.049C394.748 362.049 380.151 353.532 356.686 356.726C338.895 359.164 307.913 370.269 307.605 370.375Z" fill="#263238"/>
<path d="M307.37 378.86L307.008 377.86C307.328 377.742 338.863 366.393 356.452 364.019C380.226 360.825 395.376 369.843 395.525 369.928L394.972 370.843C394.823 370.748 379.981 361.964 356.59 365.084C339.119 367.426 307.679 378.722 307.37 378.86Z" fill="#263238"/>
<path d="M491.239 443.593C491.239 443.593 487.939 442.773 482.807 441.697L483.031 440.633C488.184 441.697 491.473 442.528 491.548 442.539L491.239 443.593Z" fill="#263238"/>
<path d="M478.985 440.92C474.492 440.036 470.755 436.821 466.805 433.467C461.822 429.209 456.669 424.726 449.43 424.514C435.212 424.248 421.068 426.605 407.705 431.466L407.29 431.626L407.056 431.242C405.425 428.757 403.629 426.385 401.679 424.141L402.478 423.449C404.371 425.625 406.124 427.918 407.726 430.316C421.112 425.536 435.25 423.21 449.461 423.449C457.074 423.672 462.376 428.24 467.508 432.658C471.34 435.959 474.96 439.046 479.219 439.919L478.985 440.92Z" fill="#263238"/>
<path d="M398.9 421.054C396.263 418.299 393.415 415.754 390.383 413.441L391.022 412.6C394.096 414.94 396.98 417.521 399.645 420.319L398.9 421.054Z" fill="#263238"/>
<path d="M390.404 413.441C386.118 410.145 381.382 407.481 376.34 405.53C354.45 397.226 330.091 403.465 327.365 404.2L327.088 403.135C329.824 402.39 354.493 396.076 376.702 404.508C381.837 406.494 386.66 409.209 391.022 412.568L390.404 413.441Z" fill="#263238"/>
<path d="M265.359 419.361L265.124 418.296C265.721 418.158 324.98 404.924 350.298 405.52C360.169 405.661 369.951 407.398 379.268 410.662L378.906 411.663C369.686 408.434 360.002 406.726 350.234 406.606C325.055 406.02 265.955 419.233 265.359 419.361Z" fill="#263238"/>
<path d="M388.498 416.252C386.938 415.234 385.297 414.347 383.59 413.601L384.027 412.632C385.786 413.415 387.484 414.329 389.105 415.368L388.498 416.252Z" fill="#263238"/>
<path d="M384.992 432.569L224.113 440.268L224.164 441.332L385.043 433.632L384.992 432.569Z" fill="#263238"/>
<path d="M400.128 431.822L391.344 432.243L391.395 433.306L400.179 432.886L400.128 431.822Z" fill="#263238"/>
<path d="M274.336 447.605L264.959 447.842L264.986 448.907L274.363 448.669L274.336 447.605Z" fill="#263238"/>
<path d="M259.583 447.988L185.207 449.871L185.234 450.935L259.61 449.053L259.583 447.988Z" fill="#263238"/>
<path d="M376.884 453.612L368.623 453.86L368.654 454.925L376.916 454.677L376.884 453.612Z" fill="#263238"/>
<path d="M361.978 454.048L257.214 457.191L257.246 458.256L362.01 455.113L361.978 454.048Z" fill="#263238"/>
<path d="M333.564 444.562L311.623 445.312L311.659 446.377L333.6 445.626L333.564 444.562Z" fill="#263238"/>
<path d="M393.993 442.496L339.577 444.358L339.614 445.422L394.029 443.56L393.993 442.496Z" fill="#263238"/>
<path d="M239.425 456.596L231.837 456.804L231.866 457.868L239.455 457.66L239.425 456.596Z" fill="#263238"/>
<path d="M227.102 456.933L156.498 458.868L156.527 459.932L227.131 457.997L227.102 456.933Z" fill="#263238"/>
<path d="M282.904 224.653C282.904 224.653 298.555 204.073 308.456 195.503C318.358 186.932 335.254 173.421 342.121 173.421C348.988 173.421 350.692 177.68 351.128 179.203C351.565 180.725 357.304 202.359 357.304 203.434C357.304 204.51 351.309 206.224 350.916 204.936C350.522 203.647 347.913 185.207 346.848 181.779C345.784 178.351 345.986 176.456 337.841 179.852C329.697 183.248 305.688 209.003 300.748 214.986C295.808 220.97 291.102 227.209 291.102 227.209C291.102 227.209 285.268 224.653 282.904 224.653Z" fill="#263238"/>
<path d="M291.219 227.89L290.836 227.72C290.783 227.72 285.119 225.186 282.904 225.186H281.84L282.489 224.334C282.649 224.132 298.289 203.616 308.041 195.098C315.718 188.423 334.402 172.889 342.047 172.889C349.042 172.889 351.033 177.201 351.565 179.064C351.863 180.129 357.793 202.21 357.793 203.435C357.793 204.659 354.205 205.66 353.247 205.819C351.554 206.086 350.575 205.819 350.33 205.106C350.16 204.574 349.744 201.987 349.02 197.451C348.126 191.766 346.891 183.972 346.252 181.939L346.018 181.151C345.667 179.937 345.401 179.022 344.73 178.745C343.772 178.287 341.674 178.745 337.958 180.342C330.059 183.664 306.316 208.971 301.078 215.348C296.213 221.278 291.496 227.485 291.443 227.549L291.219 227.89ZM283.905 224.228C286.3 224.784 288.636 225.572 290.879 226.581C291.943 225.207 296.053 219.831 300.29 214.677C304.986 208.95 329.132 182.918 337.554 179.362C341.727 177.606 343.878 177.158 345.188 177.787C346.252 178.308 346.636 179.49 347.04 180.853C347.115 181.098 347.189 181.353 347.274 181.619C347.934 183.749 349.116 191.202 350.074 197.281C350.649 200.89 351.139 204.297 351.341 204.733C351.899 204.888 352.488 204.888 353.045 204.733C354.381 204.586 355.656 204.098 356.75 203.317C356.675 202.253 351.097 181.257 350.532 179.309C349.968 177.361 348.094 173.911 342.015 173.911C334.562 173.911 314.621 190.712 308.701 195.865C300.12 203.413 286.833 220.437 283.905 224.228Z" fill="#263238"/>
<path d="M547.816 245.638C547.315 244.914 546.645 244.073 546.176 243.956C545.42 243.764 540.395 252.303 539.16 254.411C539.837 253.556 540.608 252.781 541.46 252.101C541.46 252.739 538.883 265.388 536.53 271.392C534.177 277.397 534.805 280.187 537.169 279.974C539.533 279.761 542.737 269.039 544.622 263.035C546.3 257.365 547.371 251.534 547.816 245.638Z" fill="white"/>
<path d="M536.924 280.517C536.576 280.534 536.228 280.465 535.913 280.317C535.597 280.168 535.323 279.944 535.114 279.665C534.05 278.281 534.401 275.406 536.03 271.201C537.925 266.378 539.969 257.179 540.672 253.559L539.554 254.773L536.168 258.414L538.681 254.102C545.069 243.094 545.814 243.275 546.283 243.392C546.751 243.509 547.177 243.764 548.231 245.287L548.337 245.447V245.638C547.905 251.577 546.834 257.453 545.143 263.163L544.664 264.685C541.854 273.501 539.522 280.251 537.212 280.464L536.924 280.517ZM541.492 251.536L541.651 251.59L541.992 251.717V252.101C541.992 252.846 539.383 265.558 537.02 271.584C534.965 276.822 535.593 278.526 535.955 279.037C536.092 279.203 536.27 279.33 536.473 279.403C536.675 279.476 536.894 279.493 537.105 279.452C538.926 279.282 542.13 269.231 543.663 264.408L544.153 262.875C545.787 257.322 546.829 251.612 547.262 245.84C546.978 245.37 546.618 244.949 546.197 244.595C544.44 246.775 542.867 249.097 541.492 251.536Z" fill="#263238"/>
<path d="M547.677 241.166C546.815 237.302 541.289 242.231 538.883 245.67C536.477 249.109 525.809 260.671 519.804 266.463C513.799 272.255 491.292 291.547 488.929 293.261C486.565 294.975 483.786 297.977 482.072 298.19C480.358 298.403 475.855 298.19 473.715 296.902C471.575 295.614 470.521 293.261 460.204 287.692C449.887 282.124 405.32 269.252 402.105 269.061C398.89 268.869 396.313 272.063 391.809 273.99C387.306 275.917 379.811 276.343 376.595 273.554C373.38 270.764 369.515 263.695 367.375 258.552C365.235 253.41 361.796 252.164 358.794 250.408C355.792 248.651 319.785 232.862 313.13 230.658C306.476 228.454 299.843 227.017 296.841 226.804C294.9 226.692 292.953 226.835 291.049 227.23C291.049 227.23 290.623 227.869 288.92 226.591C287.216 225.313 281.627 222.939 279.913 226.367C278.198 229.796 275.654 237.738 277.123 240.74L278.624 243.743C278.624 243.743 277.123 263.035 277.773 269.678C278.422 276.322 283.564 284.903 287.844 290.045C292.124 295.188 309.287 304.834 321.914 307.836C334.541 310.838 342.281 309.124 345.709 306.771C349.137 304.418 359.646 292.622 362.222 289.832C364.799 287.043 364.575 285.329 372.933 287.905C381.291 290.482 384.304 296.476 385.805 300.98C387.306 305.483 392.874 323.487 397.378 329.279C403.015 336.888 410.557 342.877 419.246 346.643C430.18 351.36 437.463 355.001 447.758 353.723C458.053 352.446 463.622 347.719 466.837 342.14C470.052 336.561 472.16 325.424 473.225 321.986C474.108 319.705 475.683 317.758 477.728 316.417C477.728 316.417 481.987 314.49 483.307 311.488C484.628 308.486 494.667 299.265 494.667 299.265C494.667 299.265 510.957 286.404 517.174 279.324C523.392 272.244 541.492 251.451 541.492 252.101C541.492 252.75 538.915 265.388 536.562 271.392C534.209 277.397 534.837 280.187 537.201 279.974C539.564 279.761 542.769 269.039 544.654 263.035C546.538 257.03 548.529 245.02 547.677 241.166ZM365.448 276.513C365.067 277.811 364.489 279.043 363.734 280.165C362.446 282.092 353.865 295.816 348.509 300.096C343.154 304.376 336.936 308.028 330.495 307.389C324.054 306.75 307.562 300.532 295.361 290.886C283.16 281.241 281.424 268.582 282.713 256.37C284.001 244.158 288.292 235.779 294.722 234.502C301.153 233.224 322.404 238.569 336.958 246.287C351.512 254.006 363.968 263.439 364.82 266.655C365.672 269.87 365.448 276.513 365.448 276.513ZM468.136 320.484C466.848 331.631 464.282 338.073 460.417 343.215C456.552 348.357 452.059 350.721 440.05 349.603C428.04 348.485 419.044 344.024 410.675 338.03C402.307 332.036 399.528 324.094 396.313 316.588C393.098 309.082 387.53 294.081 390.745 284.648C393.96 275.215 403.393 277.578 403.393 277.578C403.393 277.578 411.325 279.292 411.91 279.505C412.496 279.718 459.938 293.655 462.078 296.87C464.218 300.085 469.424 309.337 468.136 320.484Z" fill="#263238"/>
<path d="M443.659 354.511C436.025 354.511 429.722 351.775 421.482 348.187L419.044 347.122C410.273 343.325 402.66 337.28 396.973 329.598C392.864 324.275 387.977 309.305 385.879 302.896C385.656 302.193 385.453 301.597 385.304 301.139C383.888 296.881 381.046 290.94 372.795 288.363C365.895 286.234 365.214 287.075 363.553 289.066C363.276 289.407 362.978 289.769 362.616 290.131L361.019 291.877C357.123 296.135 348.999 305.1 346.018 307.144C344.272 308.347 337.352 311.988 321.797 308.294C309.351 305.334 291.88 295.667 287.429 290.322C282.809 284.786 277.847 276.247 277.23 269.668C276.612 263.28 277.932 245.712 278.071 243.775L276.644 240.911C275.026 237.717 277.709 229.519 279.434 226.069C279.671 225.578 280.018 225.147 280.448 224.811C280.878 224.475 281.38 224.243 281.914 224.132C284.576 223.503 288.057 225.196 289.228 226.101C290.144 226.783 290.559 226.804 290.666 226.793L290.73 226.697L290.932 226.644C292.888 226.235 294.889 226.088 296.883 226.208C300.141 226.442 307.04 228.071 313.301 230.094C319.944 232.223 356.164 248.193 359.082 249.854L360.231 250.493C362.904 251.951 365.938 253.591 367.886 258.265C370.133 263.663 373.976 270.487 376.957 273.075C379.938 275.662 387.114 275.342 391.629 273.415C393.212 272.688 394.729 271.826 396.164 270.839C398.293 269.476 400.05 268.315 402.158 268.443C405.586 268.667 450.441 281.72 460.481 287.16C467.806 291.121 470.457 293.442 472.192 294.975C472.745 295.497 473.343 295.967 473.981 296.38C475.961 297.573 480.369 297.807 482.008 297.605C482.999 297.477 484.606 296.093 486.171 294.762C486.98 294.07 487.822 293.346 488.62 292.771C490.898 291.11 513.374 271.861 519.432 266.016C525.277 260.373 536.094 248.715 538.447 245.297C540.076 242.934 544.164 238.728 546.613 239.197C547.029 239.293 547.406 239.517 547.688 239.838C547.971 240.158 548.146 240.56 548.188 240.985C549.115 245.148 547.028 257.371 545.175 263.131L544.696 264.653C541.886 273.468 539.554 280.218 537.244 280.431C536.847 280.501 536.438 280.46 536.063 280.314C535.687 280.167 535.359 279.921 535.114 279.601C534.05 278.217 534.401 275.342 536.03 271.137C537.925 266.314 539.969 257.104 540.672 253.495C537.595 256.764 528.577 267.08 522.86 273.628L517.632 279.707C511.457 286.745 495.21 299.585 495.051 299.713C491.622 302.853 484.83 309.433 483.85 311.722C482.498 314.916 478.186 316.854 478.005 316.928C476.081 318.2 474.594 320.032 473.747 322.177C473.48 323.04 473.129 324.456 472.682 326.095C471.479 330.929 469.669 338.232 467.231 342.438C463.302 349.262 456.935 353.085 447.758 354.277C446.398 354.439 445.029 354.517 443.659 354.511ZM366.886 286.095C369.008 286.239 371.101 286.676 373.103 287.394C381.834 290.077 384.815 296.338 386.316 300.809C386.465 301.267 386.667 301.874 386.891 302.577C388.967 308.965 393.822 323.87 397.804 328.948C403.385 336.491 410.859 342.426 419.47 346.154L421.908 347.218C431.49 351.37 438.336 354.373 447.705 353.202C456.52 352.137 462.61 348.4 466.39 341.884C468.743 337.807 470.542 330.588 471.713 325.808C472.128 324.157 472.48 322.741 472.778 321.836C473.69 319.428 475.346 317.374 477.505 315.97C477.601 315.917 481.678 314.054 482.828 311.286C484.138 308.209 493.901 299.265 494.316 298.882C494.508 298.733 510.669 285.946 516.791 278.983L522.019 273.011C540.938 251.345 541.044 251.387 541.598 251.6L541.939 251.728V252.111C541.939 252.856 539.33 265.569 536.967 271.595C534.912 276.833 535.54 278.536 535.902 279.047C536.038 279.214 536.217 279.34 536.42 279.414C536.622 279.487 536.841 279.504 537.052 279.463C538.873 279.292 542.077 269.242 543.61 264.419L544.1 262.886C546.07 256.764 547.901 244.978 547.092 241.305C546.921 240.528 546.581 240.378 546.347 240.325C544.771 240.038 541.194 243.179 539.256 245.989C536.818 249.535 526.065 261.129 520.092 266.868C514.119 272.606 491.452 292.047 489.163 293.708C488.396 294.261 487.577 294.975 486.778 295.656C485.021 297.157 483.361 298.573 482.051 298.744C480.486 298.935 475.748 298.829 473.353 297.381C472.658 296.938 472.006 296.432 471.404 295.869C469.69 294.357 467.082 292.09 459.863 288.172C449.898 282.774 405.373 269.817 401.988 269.593C400.231 269.465 398.645 270.509 396.664 271.818C395.178 272.844 393.603 273.734 391.959 274.48C387.157 276.535 379.491 276.833 376.18 273.958C372.869 271.084 369.047 264.099 366.822 258.755C365.022 254.432 362.286 252.952 359.635 251.515L358.475 250.866C355.589 249.215 319.529 233.32 312.907 231.19C307.652 229.394 302.236 228.111 296.734 227.358C294.894 227.253 293.048 227.382 291.241 227.741C291.107 227.835 290.954 227.897 290.794 227.922C289.951 227.938 289.135 227.62 288.526 227.038C287.397 226.186 284.267 224.749 282.138 225.25C281.756 225.328 281.398 225.494 281.092 225.734C280.785 225.974 280.538 226.282 280.37 226.634C278.667 230.03 276.218 237.791 277.581 240.474L279.146 243.668V243.807C279.146 244.009 277.656 263.131 278.294 269.657C278.901 276.045 283.735 284.317 288.249 289.737C292.593 294.964 309.777 304.44 322.042 307.357C337.181 310.945 343.761 307.506 345.464 306.356C348.339 304.387 356.399 295.518 360.274 291.259C360.955 290.514 361.498 289.907 361.882 289.502C362.265 289.098 362.51 288.778 362.776 288.438C363.926 286.99 364.756 286.095 366.886 286.095ZM445.235 350.434C443.67 350.434 441.934 350.348 440.007 350.178C429.446 349.23 420.3 345.632 410.367 338.467C402.616 332.898 399.592 325.691 396.664 318.781C396.388 318.121 396.111 317.461 395.823 316.811C391.565 306.963 387.21 293.388 390.234 284.477C393.577 274.703 403.425 277.024 403.521 277.024C404.319 277.195 411.485 278.739 412.134 278.962L413.263 279.303C434.812 285.744 460.864 293.974 462.578 296.54C464.292 299.106 470.031 308.762 468.668 320.474C467.465 330.876 465.123 337.753 460.843 343.46C457.564 347.9 453.859 350.434 445.235 350.434ZM400.774 277.866C397.889 277.866 393.321 278.93 391.245 284.86C388.179 293.868 393.375 308.496 396.803 316.417C397.09 317.077 397.367 317.737 397.644 318.398C400.508 325.201 403.478 332.238 410.995 337.636C420.758 344.652 429.733 348.187 440.103 349.113C452.091 350.178 456.35 347.761 459.991 342.896C464.154 337.349 466.432 330.631 467.603 320.431C468.913 309.071 463.409 299.776 461.695 297.2C461.258 296.551 456.456 293.41 412.954 280.389L411.793 280.048C411.346 279.899 406.47 278.824 403.276 278.132C402.455 277.947 401.615 277.858 400.774 277.866ZM332.028 308.017C331.499 308.019 330.969 307.994 330.442 307.942C323.713 307.261 307.221 300.958 295.01 291.323C281.329 280.517 281.169 266.175 282.159 256.327C283.522 243.445 288.047 235.311 294.594 233.969C301.142 232.628 322.414 237.994 337.181 245.808C351.203 253.261 364.352 262.907 365.321 266.506C366.183 269.763 365.981 276.247 365.981 276.524V276.641C365.583 277.992 364.98 279.274 364.192 280.442C364.054 280.655 363.841 280.996 363.543 281.443C361.115 285.19 353.716 296.625 348.861 300.5C342.494 305.611 337.075 308.017 332.028 308.017ZM297.096 234.853C296.325 234.842 295.555 234.906 294.797 235.044C288.835 236.237 284.501 244.233 283.224 256.444C281.616 271.69 285.566 282.508 295.67 290.514C307.264 299.67 323.798 306.239 330.548 306.91C335.797 307.442 341.397 305.164 348.179 299.734C352.896 295.965 360.221 284.648 362.638 280.921L363.287 279.92C363.998 278.865 364.547 277.71 364.916 276.492C364.916 275.821 365.076 269.785 364.288 266.846C363.5 263.908 351.278 254.539 336.681 246.809C323.543 239.825 305.22 234.853 297.096 234.853Z" fill="#263238"/>
<path d="M381.397 280.57C380.463 280.575 379.53 280.475 378.618 280.272C370.974 278.579 368.025 270.317 366.076 264.845L365.8 264.068C363.979 259.011 362.158 257.68 362.148 257.68L362.733 256.807C362.819 256.86 364.863 258.244 366.8 263.706L367.077 264.483C368.951 269.732 371.783 277.664 378.852 279.239C386.22 280.868 393.758 274.48 393.822 274.416L394.524 275.225C394.237 275.449 388.179 280.57 381.397 280.57Z" fill="white"/>
<path d="M477.388 305.015C474.87 304.916 472.404 304.273 470.159 303.13C469.913 302.918 469.714 302.657 469.573 302.364C468.583 300.682 465.549 295.593 452.868 289.875C437.867 283.115 403.563 274.555 403.223 274.469L403.478 273.405C403.819 273.49 438.219 282.071 453.305 288.874C466.283 294.73 469.456 300.032 470.489 301.778C470.606 301.97 470.734 302.183 470.776 302.236C471.213 302.513 477.462 305.26 480.422 303.077L481.061 303.94C479.979 304.674 478.695 305.05 477.388 305.015Z" fill="white"/>
<path d="M360.391 255.721C360.391 255.721 356.132 252.218 338.427 244.222C326.804 239.104 314.76 235 302.43 231.957C301.174 231.627 300.184 231.372 299.481 231.169C295.684 230.232 291.698 230.383 287.983 231.606C284.736 232.522 280.786 229.061 280.626 228.912L281.329 228.114C281.329 228.114 285.012 231.308 287.717 230.573C291.621 229.299 295.806 229.151 299.79 230.147C300.493 230.35 301.483 230.605 302.718 230.925C315.118 233.979 327.23 238.104 338.917 243.253C356.793 251.334 360.955 254.762 361.126 254.912L360.391 255.721Z" fill="white"/>
<path d="M289.42 288.949C279.689 280.506 280.434 266.144 280.445 266.005L281.51 266.069C281.51 266.208 280.786 280.059 290.112 288.14L289.42 288.949Z" fill="white"/>
</svg>
