<svg width="28" height="28" viewBox="0 0 28 28" fill="none" xmlns="http://www.w3.org/2000/svg">
<path d="M14.304 5.53884C14.2226 5.46095 14.1143 5.41748 14.0016 5.41748C13.8889 5.41748 13.7806 5.46095 13.6992 5.53884L3.63123 15.1567C3.58847 15.1976 3.55445 15.2468 3.53123 15.3012C3.50802 15.3556 3.49608 15.4142 3.49615 15.4734L3.49451 24.5001C3.49451 24.9642 3.67888 25.4093 4.00707 25.7375C4.33526 26.0657 4.78038 26.2501 5.24451 26.2501H10.5C10.732 26.2501 10.9546 26.1579 11.1187 25.9938C11.2828 25.8297 11.375 25.6072 11.375 25.3751V17.9376C11.375 17.8216 11.4211 17.7103 11.5031 17.6282C11.5852 17.5462 11.6964 17.5001 11.8125 17.5001H16.1875C16.3035 17.5001 16.4148 17.5462 16.4968 17.6282C16.5789 17.7103 16.625 17.8216 16.625 17.9376V25.3751C16.625 25.6072 16.7172 25.8297 16.8813 25.9938C17.0454 26.1579 17.2679 26.2501 17.5 26.2501H22.7533C23.2174 26.2501 23.6625 26.0657 23.9907 25.7375C24.3189 25.4093 24.5033 24.9642 24.5033 24.5001V15.4734C24.5033 15.4142 24.4914 15.3556 24.4682 15.3012C24.445 15.2468 24.4109 15.1976 24.3682 15.1567L14.304 5.53884Z" fill="white"/>
<path d="M26.8467 13.352L22.756 9.43852V3.5C22.756 3.26794 22.6638 3.04538 22.4998 2.88128C22.3357 2.71719 22.1131 2.625 21.881 2.625H19.256C19.024 2.625 18.8014 2.71719 18.6373 2.88128C18.4732 3.04538 18.381 3.26794 18.381 3.5V5.25L15.2135 2.22141C14.9171 1.92172 14.4763 1.75 14 1.75C13.5253 1.75 13.0856 1.92172 12.7892 2.22195L1.15721 13.3509C0.817052 13.679 0.774396 14.2188 1.08393 14.5742C1.16165 14.6639 1.25683 14.7369 1.36365 14.7887C1.47048 14.8405 1.58672 14.87 1.70531 14.8754C1.8239 14.8808 1.94235 14.862 2.05345 14.8202C2.16456 14.7784 2.26599 14.7144 2.35158 14.6322L13.6992 3.78875C13.7807 3.71086 13.889 3.66739 14.0017 3.66739C14.1143 3.66739 14.2227 3.71086 14.3041 3.78875L25.6528 14.6322C25.82 14.7925 26.0439 14.88 26.2755 14.8755C26.5071 14.871 26.7274 14.7748 26.8882 14.6081C27.224 14.2603 27.1961 13.6861 26.8467 13.352Z" fill="white"/>
</svg>
